0
SECTION
2
HEADER
9
$INSUNITS
70
1
0
ENDSEC
0
SECTION
2
TABLES
0
TABLE
2
LAYER
0
ENDTAB
0
ENDSEC
0
SECTION
2
ENTITIES
0
LINE
8
front_outsideCutPath
10
0
20
20.125
11
0
21
18.48825
0
LINE
8
front_outsideCutPath
10
0
20
18.48825
11
0.118
21
18.48825
0
LINE
8
front_outsideCutPath
10
0.118
20
18.48825
11
0.118
21
16.62975
0
LINE
8
front_outsideCutPath
10
0.118
20
16.62975
11
0
21
16.62975
0
LINE
8
front_outsideCutPath
10
0
20
16.62975
11
0
21
14.77125
0
LINE
8
front_outsideCutPath
10
0
20
14.77125
11
0.118
21
14.77125
0
LINE
8
front_outsideCutPath
10
0.118
20
14.77125
11
0.118
21
12.91275
0
LINE
8
front_outsideCutPath
10
0.118
20
12.91275
11
0
21
12.91275
0
LINE
8
front_outsideCutPath
10
0
20
12.91275
11
0
21
11.05425
0
LINE
8
front_outsideCutPath
10
0
20
11.05425
11
0.118
21
11.05425
0
LINE
8
front_outsideCutPath
10
0.118
20
11.05425
11
0.118
21
9.19575
0
LINE
8
front_outsideCutPath
10
0.118
20
9.19575
11
0
21
9.19575
0
LINE
8
front_outsideCutPath
10
0
20
9.19575
11
0
21
7.33725
0
LINE
8
front_outsideCutPath
10
0
20
7.33725
11
0.118
21
7.33725
0
LINE
8
front_outsideCutPath
10
0.118
20
7.33725
11
0.118
21
5.47875
0
LINE
8
front_outsideCutPath
10
0.118
20
5.47875
11
0
21
5.47875
0
LINE
8
front_outsideCutPath
10
0
20
5.47875
11
0
21
3.62025
0
LINE
8
front_outsideCutPath
10
0
20
3.62025
11
0.118
21
3.62025
0
LINE
8
front_outsideCutPath
10
0.118
20
3.62025
11
0.118
21
1.76175
0
LINE
8
front_outsideCutPath
10
0.118
20
1.76175
11
0
21
1.76175
0
LINE
8
front_outsideCutPath
10
0
20
1.76175
11
0
21
0.125
0
LINE
8
front_outsideCutPath
10
0
20
0.125
11
1.85375
21
0.125
0
LINE
8
front_outsideCutPath
10
1.85375
20
0.125
11
1.85375
21
0.243
0
LINE
8
front_outsideCutPath
10
1.85375
20
0.243
11
3.71225
21
0.243
0
LINE
8
front_outsideCutPath
10
3.71225
20
0.243
11
3.71225
21
0.125
0
LINE
8
front_outsideCutPath
10
3.71225
20
0.125
11
5.57075
21
0.125
0
LINE
8
front_outsideCutPath
10
5.57075
20
0.125
11
5.57075
21
0.243
0
LINE
8
front_outsideCutPath
10
5.57075
20
0.243
11
7.42925
21
0.243
0
LINE
8
front_outsideCutPath
10
7.42925
20
0.243
11
7.42925
21
0.125
0
LINE
8
front_outsideCutPath
10
7.42925
20
0.125
11
9.28775
21
0.125
0
LINE
8
front_outsideCutPath
10
9.28775
20
0.125
11
9.28775
21
0.243
0
LINE
8
front_outsideCutPath
10
9.28775
20
0.243
11
11.14625
21
0.243
0
LINE
8
front_outsideCutPath
10
11.14625
20
0.243
11
11.14625
21
0.125
0
LINE
8
front_outsideCutPath
10
11.14625
20
0.125
11
13
21
0.125
0
LINE
8
front_outsideCutPath
10
13
20
0.125
11
13
21
1.76175
0
LINE
8
front_outsideCutPath
10
13
20
1.76175
11
12.882
21
1.76175
0
LINE
8
front_outsideCutPath
10
12.882
20
1.76175
11
12.882
21
3.62025
0
LINE
8
front_outsideCutPath
10
12.882
20
3.62025
11
13
21
3.62025
0
LINE
8
front_outsideCutPath
10
13
20
3.62025
11
13
21
5.47875
0
LINE
8
front_outsideCutPath
10
13
20
5.47875
11
12.882
21
5.47875
0
LINE
8
front_outsideCutPath
10
12.882
20
5.47875
11
12.882
21
7.33725
0
LINE
8
front_outsideCutPath
10
12.882
20
7.33725
11
13
21
7.33725
0
LINE
8
front_outsideCutPath
10
13
20
7.33725
11
13
21
9.19575
0
LINE
8
front_outsideCutPath
10
13
20
9.19575
11
12.882
21
9.19575
0
LINE
8
front_outsideCutPath
10
12.882
20
9.19575
11
12.882
21
11.05425
0
LINE
8
front_outsideCutPath
10
12.882
20
11.05425
11
13
21
11.05425
0
LINE
8
front_outsideCutPath
10
13
20
11.05425
11
13
21
12.91275
0
LINE
8
front_outsideCutPath
10
13
20
12.91275
11
12.882
21
12.91275
0
LINE
8
front_outsideCutPath
10
12.882
20
12.91275
11
12.882
21
14.77125
0
LINE
8
front_outsideCutPath
10
12.882
20
14.77125
11
13
21
14.77125
0
LINE
8
front_outsideCutPath
10
13
20
14.77125
11
13
21
16.62975
0
LINE
8
front_outsideCutPath
10
13
20
16.62975
11
12.882
21
16.62975
0
LINE
8
front_outsideCutPath
10
12.882
20
16.62975
11
12.882
21
18.48825
0
LINE
8
front_outsideCutPath
10
12.882
20
18.48825
11
13
21
18.48825
0
LINE
8
front_outsideCutPath
10
13
20
18.48825
11
13
21
20.125
0
LINE
8
front_outsideCutPath
10
13
20
20.125
11
11.14625
21
20.125
0
LINE
8
front_outsideCutPath
10
11.14625
20
20.125
11
11.14625
21
20.007
0
LINE
8
front_outsideCutPath
10
11.14625
20
20.007
11
9.28775
21
20.007
0
LINE
8
front_outsideCutPath
10
9.28775
20
20.007
11
9.28775
21
20.125
0
LINE
8
front_outsideCutPath
10
9.28775
20
20.125
11
7.42925
21
20.125
0
LINE
8
front_outsideCutPath
10
7.42925
20
20.125
11
7.42925
21
20.007
0
LINE
8
front_outsideCutPath
10
7.42925
20
20.007
11
5.57075
21
20.007
0
LINE
8
front_outsideCutPath
10
5.57075
20
20.007
11
5.57075
21
20.125
0
LINE
8
front_outsideCutPath
10
5.57075
20
20.125
11
3.71225
21
20.125
0
LINE
8
front_outsideCutPath
10
3.71225
20
20.125
11
3.71225
21
20.007
0
LINE
8
front_outsideCutPath
10
3.71225
20
20.007
11
1.85375
21
20.007
0
LINE
8
front_outsideCutPath
10
1.85375
20
20.007
11
1.85375
21
20.125
0
LINE
8
front_outsideCutPath
10
1.85375
20
20.125
11
0
21
20.125
0
LINE
8
front_labelLayer
10
4.3462402
20
10.5344514
11
4.3462402
21
10.3706818
0
LINE
8
front_labelLayer
10
4.3462402
20
10.3706818
11
3.992041
21
10.3706818
0
LINE
8
front_labelLayer
10
3.992041
20
10.3706818
11
3.992041
21
9.1430451
0
LINE
8
front_labelLayer
10
3.992041
20
9.1430451
11
3.7812988
21
9.1430451
0
LINE
8
front_labelLayer
10
3.7812988
20
9.1430451
11
3.7812988
21
10.3706818
0
LINE
8
front_labelLayer
10
3.7812988
20
10.3706818
11
3.5324707
21
10.3706818
0
LINE
8
front_labelLayer
10
3.5324707
20
10.3706818
11
3.5324707
21
10.4658967
0
LINE
8
front_labelLayer
10
3.5324707
20
10.4658967
11
3.7812988
21
10.5420686
0
LINE
8
front_labelLayer
10
3.7812988
20
10.5420686
11
3.7812988
21
10.61951
0
LINE
8
front_labelLayer
10
4.4884277
20
11.087967
11
4.4338379
21
10.9191193
0
LINE
8
front_labelLayer
10
3.992041
20
10.6245881
11
3.992041
21
10.5344514
0
LINE
8
front_labelLayer
10
3.992041
20
10.5344514
11
4.3462402
21
10.5344514
0
ARC
8
front_labelLayer
10
4.6353647
20
10.6293287
40
0.8541223
50
167.5776167
51
180.6586705
0
ARC
8
front_labelLayer
10
4.2337263
20
10.7229677
40
0.4417724
50
141.743363
51
168.2322793
0
ARC
8
front_labelLayer
10
4.1683334
20
10.7570974
40
0.369544
50
98.2551753
51
139.6203047
0
ARC
8
front_labelLayer
10
4.2257494
20
10.4918629
40
0.6405483
50
89.6695848
51
99.9315091
0
ARC
8
front_labelLayer
10
4.2259092
20
10.4537636
40
0.6786462
50
81.5640619
51
89.7016234
0
ARC
8
front_labelLayer
10
4.1781958
20
10.1208894
40
1.0149201
50
75.9741569
51
81.6564558
0
ARC
8
front_labelLayer
10
4.0964146
20
9.7816482
40
1.3638706
50
73.2960287
51
76.0949483
0
ARC
8
front_labelLayer
10
4.1169466
20
9.9460609
40
1.0233586
50
71.96137
51
76.5918615
0
ARC
8
front_labelLayer
10
4.1963362
20
10.282833
40
0.6773572
50
76.5185163
51
83.0216376
0
ARC
8
front_labelLayer
10
4.2239949
20
10.505265
40
0.4532128
50
83.0759449
51
89.7926846
0
ARC
8
front_labelLayer
10
4.2230855
20
10.6742697
40
0.2842165
50
89.4860877
51
103.4195317
0
ARC
8
front_labelLayer
10
4.1974617
20
10.7727197
40
0.1825195
50
102.7678223
51
144.3380015
0
ARC
8
front_labelLayer
10
4.2490824
20
10.7395065
40
0.2438431
50
145.0688249
51
162.1800974
0
ARC
8
front_labelLayer
10
4.4260592
20
10.6799611
40
0.4305589
50
161.8435481
51
171.7847722
0
ARC
8
front_labelLayer
10
4.7147343
20
10.6366023
40
0.7224692
50
171.6527685
51
178.4384373
0
ARC
8
front_labelLayer
10
4.9869376
20
10.6249965
40
0.9948965
50
178.1975019
51
180.0235233
0
LINE
8
front_labelLayer
10
5.4012207
20
10.5446076
11
5.3720215
21
10.3490998
0
LINE
8
front_labelLayer
10
4.8108887
20
9.8895295
11
4.8108887
21
9.1430451
0
LINE
8
front_labelLayer
10
4.8108887
20
9.1430451
11
4.6001465
21
9.1430451
0
LINE
8
front_labelLayer
10
4.6001465
20
9.1430451
11
4.6001465
21
10.5344514
0
LINE
8
front_labelLayer
10
4.6001465
20
10.5344514
11
4.7740723
21
10.5344514
0
LINE
8
front_labelLayer
10
4.7740723
20
10.5344514
11
4.7981933
21
10.2767365
0
LINE
8
front_labelLayer
10
4.7981933
20
10.2767365
11
4.8083496
21
10.2767365
0
ARC
8
front_labelLayer
10
5.2370752
20
9.5923331
40
0.9675113
50
84.9924319
51
90.1281
0
ARC
8
front_labelLayer
10
5.2603061
20
9.8526473
40
0.706163
50
78.4893735
51
85.0265173
0
ARC
8
front_labelLayer
10
5.1701288
20
9.4424962
40
0.9288115
50
77.4455848
51
81.6361746
0
ARC
8
front_labelLayer
10
5.2105911
20
9.7214074
40
0.6469815
50
81.5885331
51
87.1914582
0
ARC
8
front_labelLayer
10
5.2193798
20
9.8736204
40
0.4945224
50
87.3443798
51
89.9654804
0
ARC
8
front_labelLayer
10
5.2173426
20
10.002996
40
0.3651543
50
89.6335893
51
137.0880612
0
ARC
8
front_labelLayer
10
5.3069429
20
9.9022361
40
0.4995462
50
135.6209304
51
138.8378816
0
ARC
8
front_labelLayer
10
5.2938269
20
9.9150386
40
0.4812464
50
138.957596
51
174.54219
0
ARC
8
front_labelLayer
10
5.4505524
20
9.890515
40
0.6396646
50
173.690705
51
180.0882741
0
ARC
8
front_labelLayer
10
5.4283931
20
9.9274082
40
0.7116771
50
139.413924
51
150.6033798
0
ARC
8
front_labelLayer
10
5.3007913
20
10.0367504
40
0.5436355
50
124.2321422
51
139.4161686
0
ARC
8
front_labelLayer
10
5.2325633
20
10.1397403
40
0.4201083
50
89.6796642
51
124.4405587
0
ARC
8
front_labelLayer
10
5.7739026
20
9.8326792
40
1.0885733
50
349.1762272
51
0.3862622
0
ARC
8
front_labelLayer
10
6.1404022
20
9.7596173
40
0.7148798
50
330.2507094
51
349.4116585
0
ARC
8
front_labelLayer
10
6.2531978
20
9.7009889
40
0.5878801
50
318.1439099
51
329.7567323
0
ARC
8
front_labelLayer
10
6.273548
20
9.6846794
40
0.5618419
50
278.8958866
51
317.9979545
0
ARC
8
front_labelLayer
10
6.2210959
20
9.9359751
40
0.8183284
50
269.7502807
51
279.8033911
0
ARC
8
front_labelLayer
10
6.21259
20
9.79439
40
0.6767535
50
253.5436613
51
270.418181
0
ARC
8
front_labelLayer
10
6.1900633
20
9.7072501
40
0.58681
50
238.8116208
51
253.242787
0
ARC
8
front_labelLayer
10
6.1827906
20
9.6926244
40
0.5705336
50
207.7946743
51
238.6757994
0
ARC
8
front_labelLayer
10
6.2869537
20
9.7564391
40
0.6924809
50
205.6558645
51
208.4467076
0
ARC
8
front_labelLayer
10
6.3674729
20
9.7900016
40
0.7796065
50
188.9102493
51
205.3171722
0
ARC
8
front_labelLayer
10
6.6382993
20
9.8358692
40
1.0542743
50
179.7745424
51
189.0932135
0
ARC
8
front_labelLayer
10
6.6782314
20
9.8474291
40
1.0942233
50
169.2442968
51
180.3880756
0
ARC
8
front_labelLayer
10
6.3066384
20
9.9208799
40
0.7154565
50
150.7110925
51
169.4695751
0
ARC
8
front_labelLayer
10
6.1880231
20
9.9817929
40
0.5822258
50
138.1759987
51
150.2286817
0
ARC
8
front_labelLayer
10
6.1682872
20
9.9969371
40
0.5574229
50
99.1759739
51
137.9832332
0
ARC
8
front_labelLayer
10
6.2225965
20
9.7413534
40
0.8184976
50
89.7326275
51
100.0760222
0
ARC
8
front_labelLayer
10
6.2334505
20
9.8517243
40
0.7081527
50
73.522346
51
90.5691652
0
ARC
8
front_labelLayer
10
6.2749796
20
10.0026141
40
0.5516884
50
41.1445585
51
73.2133592
0
ARC
8
front_labelLayer
10
6.1957046
20
9.9344789
40
0.6562176
50
13.5014081
51
41.0703018
0
ARC
8
front_labelLayer
10
5.8894209
20
9.8543291
40
0.9727708
50
1.1277607
51
13.8799537
0
ARC
8
front_labelLayer
10
5.6259619
20
9.8401926
40
1.2364894
50
359.9919009
51
1.542414
0
ARC
8
front_labelLayer
10
6.8695515
20
9.8345397
40
1.067173
50
179.7058833
51
187.916163
0
ARC
8
front_labelLayer
10
6.4781586
20
9.7783146
40
0.6717687
50
187.7639071
51
200.0976795
0
ARC
8
front_labelLayer
10
6.2625262
20
9.6993058
40
0.4421174
50
200.0844781
51
216.9132541
0
ARC
8
front_labelLayer
10
6.1837905
20
9.6430835
40
0.3454051
50
217.3008924
51
261.7099887
0
ARC
8
front_labelLayer
10
6.2203438
20
9.817505
40
0.5233905
50
260.503252
51
270.247802
0
ARC
8
front_labelLayer
10
6.2273219
20
9.7835963
40
0.4894997
50
269.4481595
51
284.7255748
0
ARC
8
front_labelLayer
10
6.2660731
20
9.6398818
40
0.3406567
50
284.5661965
51
322.6334173
0
ARC
8
front_labelLayer
10
6.1754701
20
9.7053382
40
0.4524011
50
323.0089828
51
342.6390529
0
ARC
8
front_labelLayer
10
5.9163277
20
9.7900331
40
0.7250187
50
342.3615903
51
353.7537126
0
ARC
8
front_labelLayer
10
5.5340269
20
9.8361154
40
1.1100718
50
353.5362345
51
0.2014177
0
ARC
8
front_labelLayer
10
5.5925855
20
9.8453833
40
1.0515199
50
359.7076396
51
7.8973009
0
ARC
8
front_labelLayer
10
5.9776784
20
9.9005903
40
0.6624965
50
7.7440076
51
20.06891
0
ARC
8
front_labelLayer
10
6.1922759
20
9.9793384
40
0.4339068
50
20.0256691
51
37.4350754
0
ARC
8
front_labelLayer
10
6.2634735
20
10.0298597
40
0.3466773
50
37.9577182
51
80.4005905
0
ARC
8
front_labelLayer
10
6.2230145
20
9.8493376
40
0.5315086
50
79.3453047
51
90.3175923
0
ARC
8
front_labelLayer
10
6.2155225
20
9.8793123
40
0.5015464
50
89.4806867
51
103.8804643
0
ARC
8
front_labelLayer
10
6.1733794
20
10.0397952
40
0.3356486
50
103.4685333
51
142.3118946
0
ARC
8
front_labelLayer
10
6.2553065
20
9.9821781
40
0.4357298
50
142.9025679
51
162.3750133
0
ARC
8
front_labelLayer
10
6.5134647
20
9.8961483
40
0.7078287
50
162.0654035
51
173.1675668
0
ARC
8
front_labelLayer
10
6.9160008
20
9.844805
40
1.1136187
50
173.0085584
51
180.2463064
0
LINE
8
front_labelLayer
10
8.3947754
20
9.1430451
11
8.1840332
21
9.1430451
0
LINE
8
front_labelLayer
10
8.1840332
20
9.1430451
11
8.1840332
21
10.0431428
0
LINE
8
front_labelLayer
10
7.4426269
20
9.8730256
11
7.4426269
21
9.1430451
0
LINE
8
front_labelLayer
10
7.4426269
20
9.1430451
11
7.2318848
21
9.1430451
0
LINE
8
front_labelLayer
10
7.2318848
20
9.1430451
11
7.2318848
21
10.5344514
0
LINE
8
front_labelLayer
10
7.2318848
20
10.5344514
11
7.4032715
21
10.5344514
0
LINE
8
front_labelLayer
10
7.4032715
20
10.5344514
11
7.4375488
21
10.3440217
0
LINE
8
front_labelLayer
10
7.4375488
20
10.3440217
11
7.4477051
21
10.3440217
0
LINE
8
front_labelLayer
10
8.3947754
20
10.05076
11
8.3947754
21
9.1430451
0
ARC
8
front_labelLayer
10
7.5883216
20
10.0465579
40
0.5957213
50
359.6715313
51
8.6877489
0
ARC
8
front_labelLayer
10
7.8091208
20
10.0815759
40
0.3721684
50
8.4930594
51
22.658068
0
ARC
8
front_labelLayer
10
7.9212954
20
10.1281933
40
0.250693
50
22.7023291
51
42.3420918
0
ARC
8
front_labelLayer
10
7.9339014
20
10.1338626
40
0.2375958
50
43.3791917
51
71.5385705
0
ARC
8
front_labelLayer
10
7.8867507
20
10.0021136
40
0.3775076
50
71.0826735
51
84.3691304
0
ARC
8
front_labelLayer
10
7.8655844
20
9.8221381
40
0.5587019
50
84.0199278
51
90.1510678
0
ARC
8
front_labelLayer
10
7.859583
20
9.7430492
40
0.637805
50
89.5932087
51
100.3719357
0
ARC
8
front_labelLayer
10
7.8145088
20
9.9795276
40
0.3970795
50
100.1175795
51
118.1603636
0
ARC
8
front_labelLayer
10
7.7690859
20
10.0685968
40
0.2971232
50
118.5439487
51
139.1927758
0
ARC
8
front_labelLayer
10
7.8086944
20
10.0420187
40
0.344521
50
140.1519891
51
160.3146454
0
ARC
8
front_labelLayer
10
8.0478507
20
9.952439
40
0.5998876
50
159.9532802
51
171.3802276
0
ARC
8
front_labelLayer
10
8.4385363
20
9.8896358
40
0.9955792
50
171.1765456
51
178.321867
0
ARC
8
front_labelLayer
10
8.7923758
20
9.8735887
40
1.3497489
50
178.0808339
51
180.0239039
0
ARC
8
front_labelLayer
10
7.8082117
20
10.115701
40
0.4267264
50
116.9442992
51
147.6525782
0
ARC
8
front_labelLayer
10
7.8528591
20
10.0409507
40
0.5136273
50
115.8079848
51
117.6057684
0
ARC
8
front_labelLayer
10
7.8753353
20
9.9884673
40
0.5706671
50
94.3226439
51
115.5454754
0
ARC
8
front_labelLayer
10
7.8889971
20
9.8697537
40
0.6900886
50
89.9580811
51
94.7108061
0
ARC
8
front_labelLayer
10
7.8946402
20
9.7278068
40
0.8320511
50
80.5585953
51
90.3538279
0
ARC
8
front_labelLayer
10
7.9466395
20
10.0290074
40
0.526404
50
65.1093462
51
80.7639066
0
ARC
8
front_labelLayer
10
8.0074245
20
10.1636402
40
0.3786962
50
46.5582769
51
64.8783965
0
ARC
8
front_labelLayer
10
8.0122839
20
10.1776576
40
0.3652283
50
19.3849753
51
45.5996704
0
ARC
8
front_labelLayer
10
7.8009983
20
10.0983792
40
0.5908679
50
6.9632686
51
19.8364211
0
ARC
8
front_labelLayer
10
7.4751391
20
10.0545632
40
0.9196442
50
359.7630492
51
7.2117233
0
LINE
8
front_labelLayer
10
9.4675293
20
9.3169709
11
9.4675293
21
9.1557404
0
LINE
8
front_labelLayer
10
8.8429199
20
9.5429475
11
8.8429199
21
10.3706818
0
LINE
8
front_labelLayer
10
8.8429199
20
10.3706818
11
8.6436035
21
10.3706818
0
LINE
8
front_labelLayer
10
8.6436035
20
10.3706818
11
8.6436035
21
10.4722443
0
LINE
8
front_labelLayer
10
8.6436035
20
10.4722443
11
8.8429199
21
10.559842
0
LINE
8
front_labelLayer
10
8.8429199
20
10.559842
11
8.9317871
21
10.8569123
0
LINE
8
front_labelLayer
10
8.9317871
20
10.8569123
11
9.0536621
21
10.8569123
0
LINE
8
front_labelLayer
10
9.0536621
20
10.8569123
11
9.0536621
21
10.5344514
0
LINE
8
front_labelLayer
10
9.0536621
20
10.5344514
11
9.457373
21
10.5344514
0
LINE
8
front_labelLayer
10
9.457373
20
10.5344514
11
9.457373
21
10.3706818
0
LINE
8
front_labelLayer
10
9.457373
20
10.3706818
11
9.0536621
21
10.3706818
0
LINE
8
front_labelLayer
10
9.0536621
20
10.3706818
11
9.0536621
21
9.5518342
0
ARC
8
front_labelLayer
10
9.2785449
20
9.9836745
40
0.6920957
50
269.8803484
51
278.3029526
0
ARC
8
front_labelLayer
10
9.2846162
20
9.9332626
40
0.6413368
50
278.416605
51
279.0060011
0
ARC
8
front_labelLayer
10
9.2074799
20
10.4259465
40
1.140022
50
278.9588441
51
280.5103
0
ARC
8
front_labelLayer
10
9.2814037
20
10.0292492
40
0.7364958
50
280.4853206
51
282.626193
0
ARC
8
front_labelLayer
10
9.3463769
20
9.7405382
40
0.4405644
50
282.5881142
51
285.5795868
0
ARC
8
front_labelLayer
10
9.3785637
20
9.622058
40
0.3177939
50
285.7268623
51
286.257072
0
ARC
8
front_labelLayer
10
9.3789348
20
9.3431209
40
0.207269
50
287.9883894
51
295.305028
0
ARC
8
front_labelLayer
10
9.3289301
20
9.494409
40
0.3666057
50
283.3068081
51
288.119518
0
ARC
8
front_labelLayer
10
9.2760925
20
9.7148235
40
0.5932643
50
280.0073205
51
283.3731707
0
ARC
8
front_labelLayer
10
9.2409866
20
9.9052299
40
0.7868756
50
279.1858658
51
280.115389
0
ARC
8
front_labelLayer
10
9.2190901
20
10.0298242
40
0.9133692
50
275.5260337
51
279.2941176
0
ARC
8
front_labelLayer
10
9.2435296
20
9.7745849
40
0.6569626
50
270.8932421
51
275.548114
0
ARC
8
front_labelLayer
10
9.2466164
20
9.6576591
40
0.5400044
50
270.0015332
51
270.7591678
0
ARC
8
front_labelLayer
10
9.2381268
20
9.6680207
40
0.5504319
50
253.7849062
51
270.8852381
0
ARC
8
front_labelLayer
10
9.1729158
20
9.4456221
40
0.3186708
50
190.3817762
51
253.8772343
0
ARC
8
front_labelLayer
10
9.505297
20
9.5354923
40
0.6624191
50
179.3551534
51
192.8477851
0
ARC
8
front_labelLayer
10
9.478014
20
9.5491789
40
0.4243602
50
179.6414954
51
189.7505421
0
ARC
8
front_labelLayer
10
9.3282122
20
9.5224606
40
0.272199
50
189.5480171
51
205.7872708
0
ARC
8
front_labelLayer
10
9.2666509
20
9.4940744
40
0.2044229
50
206.1296938
51
221.4080845
0
ARC
8
front_labelLayer
10
9.2597414
20
9.4888323
40
0.1957745
50
221.5949235
51
262.3505154
0
ARC
8
front_labelLayer
10
9.2761604
20
9.5732672
40
0.2816886
50
261.3266366
51
270.191039
0
LINE
8
left_outsideCutPath
10
13.243
20
20.125
11
13.243
21
18.48825
0
LINE
8
left_outsideCutPath
10
13.243
20
18.48825
11
13.125
21
18.48825
0
LINE
8
left_outsideCutPath
10
13.125
20
18.48825
11
13.125
21
16.62975
0
LINE
8
left_outsideCutPath
10
13.125
20
16.62975
11
13.243
21
16.62975
0
LINE
8
left_outsideCutPath
10
13.243
20
16.62975
11
13.243
21
14.77125
0
LINE
8
left_outsideCutPath
10
13.243
20
14.77125
11
13.125
21
14.77125
0
LINE
8
left_outsideCutPath
10
13.125
20
14.77125
11
13.125
21
12.91275
0
LINE
8
left_outsideCutPath
10
13.125
20
12.91275
11
13.243
21
12.91275
0
LINE
8
left_outsideCutPath
10
13.243
20
12.91275
11
13.243
21
11.05425
0
LINE
8
left_outsideCutPath
10
13.243
20
11.05425
11
13.125
21
11.05425
0
LINE
8
left_outsideCutPath
10
13.125
20
11.05425
11
13.125
21
9.19575
0
LINE
8
left_outsideCutPath
10
13.125
20
9.19575
11
13.243
21
9.19575
0
LINE
8
left_outsideCutPath
10
13.243
20
9.19575
11
13.243
21
7.33725
0
LINE
8
left_outsideCutPath
10
13.243
20
7.33725
11
13.125
21
7.33725
0
LINE
8
left_outsideCutPath
10
13.125
20
7.33725
11
13.125
21
5.47875
0
LINE
8
left_outsideCutPath
10
13.125
20
5.47875
11
13.243
21
5.47875
0
LINE
8
left_outsideCutPath
10
13.243
20
5.47875
11
13.243
21
3.62025
0
LINE
8
left_outsideCutPath
10
13.243
20
3.62025
11
13.125
21
3.62025
0
LINE
8
left_outsideCutPath
10
13.125
20
3.62025
11
13.125
21
1.76175
0
LINE
8
left_outsideCutPath
10
13.125
20
1.76175
11
13.243
21
1.76175
0
LINE
8
left_outsideCutPath
10
13.243
20
1.76175
11
13.243
21
0.125
0
LINE
8
left_outsideCutPath
10
13.243
20
0.125
11
14.19575
21
0.125
0
LINE
8
left_outsideCutPath
10
14.19575
20
0.125
11
14.19575
21
0.243
0
LINE
8
left_outsideCutPath
10
14.19575
20
0.243
11
16.05425
21
0.243
0
LINE
8
left_outsideCutPath
10
16.05425
20
0.243
11
16.05425
21
0.125
0
LINE
8
left_outsideCutPath
10
16.05425
20
0.125
11
17.007
21
0.125
0
LINE
8
left_outsideCutPath
10
17.007
20
0.125
11
17.007
21
1.76175
0
LINE
8
left_outsideCutPath
10
17.007
20
1.76175
11
17.125
21
1.76175
0
LINE
8
left_outsideCutPath
10
17.125
20
1.76175
11
17.125
21
3.62025
0
LINE
8
left_outsideCutPath
10
17.125
20
3.62025
11
17.007
21
3.62025
0
LINE
8
left_outsideCutPath
10
17.007
20
3.62025
11
17.007
21
5.47875
0
LINE
8
left_outsideCutPath
10
17.007
20
5.47875
11
17.125
21
5.47875
0
LINE
8
left_outsideCutPath
10
17.125
20
5.47875
11
17.125
21
7.33725
0
LINE
8
left_outsideCutPath
10
17.125
20
7.33725
11
17.007
21
7.33725
0
LINE
8
left_outsideCutPath
10
17.007
20
7.33725
11
17.007
21
9.19575
0
LINE
8
left_outsideCutPath
10
17.007
20
9.19575
11
17.125
21
9.19575
0
LINE
8
left_outsideCutPath
10
17.125
20
9.19575
11
17.125
21
11.05425
0
LINE
8
left_outsideCutPath
10
17.125
20
11.05425
11
17.007
21
11.05425
0
LINE
8
left_outsideCutPath
10
17.007
20
11.05425
11
17.007
21
12.91275
0
LINE
8
left_outsideCutPath
10
17.007
20
12.91275
11
17.125
21
12.91275
0
LINE
8
left_outsideCutPath
10
17.125
20
12.91275
11
17.125
21
14.77125
0
LINE
8
left_outsideCutPath
10
17.125
20
14.77125
11
17.007
21
14.77125
0
LINE
8
left_outsideCutPath
10
17.007
20
14.77125
11
17.007
21
16.62975
0
LINE
8
left_outsideCutPath
10
17.007
20
16.62975
11
17.125
21
16.62975
0
LINE
8
left_outsideCutPath
10
17.125
20
16.62975
11
17.125
21
18.48825
0
LINE
8
left_outsideCutPath
10
17.125
20
18.48825
11
17.007
21
18.48825
0
LINE
8
left_outsideCutPath
10
17.007
20
18.48825
11
17.007
21
20.125
0
LINE
8
left_outsideCutPath
10
17.007
20
20.125
11
16.05425
21
20.125
0
LINE
8
left_outsideCutPath
10
16.05425
20
20.125
11
16.05425
21
20.007
0
LINE
8
left_outsideCutPath
10
16.05425
20
20.007
11
14.19575
21
20.007
0
LINE
8
left_outsideCutPath
10
14.19575
20
20.007
11
14.19575
21
20.125
0
LINE
8
left_outsideCutPath
10
14.19575
20
20.125
11
13.243
21
20.125
0
LINE
8
left_labelLayer
10
14.6302734
20
10.4306726
11
14.6302734
21
9.8228601
0
LINE
8
left_labelLayer
10
14.6302734
20
9.8228601
11
14.5654297
21
9.8228601
0
LINE
8
left_labelLayer
10
14.5654297
20
9.8228601
11
14.5654297
21
10.4306726
0
LINE
8
left_labelLayer
10
14.5654297
20
10.4306726
11
14.6302734
21
10.4306726
0
LINE
8
left_labelLayer
10
15.1060547
20
10.0662194
11
15.1060547
21
10.0252038
0
LINE
8
left_labelLayer
10
15.1060547
20
10.0252038
11
14.8111328
21
10.0252038
0
LINE
8
left_labelLayer
10
15.0876953
20
9.9005944
11
15.0876953
21
9.8427819
0
LINE
8
left_labelLayer
10
14.8126953
20
10.0779382
11
15.0365234
21
10.0779382
0
ARC
8
left_labelLayer
10
14.9465006
20
10.0670211
40
0.2519825
50
256.0089537
51
270.4848211
0
ARC
8
left_labelLayer
10
14.9281513
20
9.9957832
40
0.1784226
50
223.546594
51
256.1957654
0
ARC
8
left_labelLayer
10
14.9382747
20
10.0031408
40
0.1908361
50
194.0877816
51
223.0537493
0
ARC
8
left_labelLayer
10
15.0310169
20
10.0285028
40
0.2869695
50
181.3573089
51
194.4920922
0
ARC
8
left_labelLayer
10
15.1138952
20
10.0333277
40
0.36995
50
179.9877246
51
181.8003034
0
ARC
8
left_labelLayer
10
15.0844366
20
10.03569
40
0.3404989
50
168.9539565
51
180.3841756
0
ARC
8
left_labelLayer
10
14.9732293
20
10.0583333
40
0.2270155
50
149.4072421
51
169.1853371
0
ARC
8
left_labelLayer
10
14.9422177
20
10.0747233
40
0.1919863
50
140.1049536
51
148.9075703
0
ARC
8
left_labelLayer
10
14.9232094
20
10.092253
40
0.1661642
50
92.4763701
51
140.5385938
0
ARC
8
left_labelLayer
10
14.9316884
20
10.0295751
40
0.2292223
50
89.9631106
51
93.9169867
0
ARC
8
left_labelLayer
10
14.9337152
20
10.0612526
40
0.1975539
50
74.2126028
51
90.5450365
0
ARC
8
left_labelLayer
10
14.9460878
20
10.1068406
40
0.1503202
50
41.2065404
51
74.0231093
0
ARC
8
left_labelLayer
10
14.9226556
20
10.0865616
40
0.1813086
50
11.5995576
51
41.1497025
0
ARC
8
left_labelLayer
10
14.8421411
20
10.0679938
40
0.2639196
50
359.6147964
51
12.0336544
0
ARC
8
left_labelLayer
10
15.07133
20
10.0304024
40
0.2602491
50
181.1445804
51
190.8009456
0
ARC
8
left_labelLayer
10
14.979526
20
10.0122954
40
0.1666794
50
190.6007704
51
206.0274528
0
ARC
8
left_labelLayer
10
14.9389025
20
9.9930909
40
0.1217501
50
206.2951303
51
222.5555952
0
ARC
8
left_labelLayer
10
14.9353007
20
9.9912043
40
0.1178257
50
223.0643581
51
258.1402134
0
ARC
8
left_labelLayer
10
14.9496308
20
10.0502145
40
0.1785313
50
257.531539
51
270.4319123
0
ARC
8
left_labelLayer
10
14.9497912
20
10.2141605
40
0.3424744
50
270.1983188
51
292.2090434
0
ARC
8
left_labelLayer
10
14.9331342
20
10.2618991
40
0.3929761
50
291.8265535
51
293.1605668
0
ARC
8
left_labelLayer
10
14.9325697
20
10.199777
40
0.3892421
50
287.9020591
51
293.4864576
0
ARC
8
left_labelLayer
10
14.9607857
20
10.1127239
40
0.2977305
50
281.9938719
51
287.8846363
0
ARC
8
left_labelLayer
10
14.9676361
20
10.0881124
40
0.2722374
50
275.9055845
51
281.6599963
0
ARC
8
left_labelLayer
10
14.9539406
20
10.2159623
40
0.4008182
50
271.911749
51
275.9725488
0
ARC
8
left_labelLayer
10
14.9489432
20
10.3432455
40
0.5281979
50
269.9663272
51
271.992926
0
ARC
8
left_labelLayer
10
14.9298111
20
10.0766823
40
0.1278244
50
89.442562
51
106.2089801
0
ARC
8
left_labelLayer
10
14.9221209
20
10.1047229
40
0.0987529
50
106.4658673
51
137.9176677
0
ARC
8
left_labelLayer
10
14.9441687
20
10.0853615
40
0.1280931
50
138.0996099
51
160.5865688
0
ARC
8
left_labelLayer
10
15.0008511
20
10.0645106
40
0.1884852
50
160.3357079
51
172.5311515
0
ARC
8
left_labelLayer
10
15.0566312
20
10.055574
40
0.2449589
50
172.1545669
51
174.7617437
0
ARC
8
left_labelLayer
10
14.8155708
20
10.0791933
40
0.2209562
50
359.6745238
51
8.922804
0
ARC
8
left_labelLayer
10
14.8945167
20
10.0920578
40
0.1409713
50
8.7342333
51
23.2770431
0
ARC
8
left_labelLayer
10
14.9320049
20
10.1077946
40
0.1003162
50
23.4818531
51
39.7075461
0
ARC
8
left_labelLayer
10
14.9412093
20
10.1146833
40
0.088836
50
40.0821232
51
80.6245713
0
ARC
8
left_labelLayer
10
14.9317316
20
10.0712417
40
0.1332608
50
79.6466685
51
90.2910368
0
LINE
8
left_labelLayer
10
15.4095703
20
10.2509851
11
15.4095703
21
10.2005944
0
LINE
8
left_labelLayer
10
15.4095703
20
10.2005944
11
15.3005859
21
10.2005944
0
LINE
8
left_labelLayer
10
15.3005859
20
10.2005944
11
15.3005859
21
9.8228601
0
LINE
8
left_labelLayer
10
15.3005859
20
9.8228601
11
15.2357422
21
9.8228601
0
LINE
8
left_labelLayer
10
15.2357422
20
9.8228601
11
15.2357422
21
10.2005944
0
LINE
8
left_labelLayer
10
15.2357422
20
10.2005944
11
15.1591797
21
10.2005944
0
LINE
8
left_labelLayer
10
15.1591797
20
10.2005944
11
15.1591797
21
10.2298913
0
LINE
8
left_labelLayer
10
15.1591797
20
10.2298913
11
15.2357422
21
10.2533288
0
LINE
8
left_labelLayer
10
15.2357422
20
10.2533288
11
15.2357422
21
10.2771569
0
LINE
8
left_labelLayer
10
15.4533203
20
10.4212976
11
15.4365234
21
10.3693444
0
LINE
8
left_labelLayer
10
15.3005859
20
10.2787194
11
15.3005859
21
10.2509851
0
LINE
8
left_labelLayer
10
15.3005859
20
10.2509851
11
15.4095703
21
10.2509851
0
ARC
8
left_labelLayer
10
15.4985229
20
10.2801789
40
0.2627981
50
167.577386
51
180.6588771
0
ARC
8
left_labelLayer
10
15.3749493
20
10.3089905
40
0.1359286
50
141.7431422
51
168.2323149
0
ARC
8
left_labelLayer
10
15.3548294
20
10.3194917
40
0.1137055
50
98.2550248
51
139.6202577
0
ARC
8
left_labelLayer
10
15.3724977
20
10.2378622
40
0.1971105
50
89.6700356
51
99.9309842
0
ARC
8
left_labelLayer
10
15.3725474
20
10.2261638
40
0.2088084
50
81.5643691
51
89.7021608
0
ARC
8
left_labelLayer
10
15.3578691
20
10.12376
40
0.3122579
50
75.973907
51
81.6566644
0
ARC
8
left_labelLayer
10
15.3326441
20
10.0191412
40
0.4198721
50
73.296923
51
76.0943788
0
ARC
8
left_labelLayer
10
15.3390134
20
10.069918
40
0.3149038
50
71.9618356
51
76.5919699
0
ARC
8
left_labelLayer
10
15.3634466
20
10.1735605
40
0.2084209
50
76.5189098
51
83.0219252
0
ARC
8
left_labelLayer
10
15.3719563
20
10.2419863
40
0.1394683
50
83.0768152
51
89.7926752
0
ARC
8
left_labelLayer
10
15.3716756
20
10.2940149
40
0.0874425
50
89.4853838
51
103.4202324
0
ARC
8
left_labelLayer
10
15.3637916
20
10.3242994
40
0.0561587
50
102.7673155
51
144.338405
0
ARC
8
left_labelLayer
10
15.3796805
20
10.314077
40
0.0750337
50
145.0697534
51
162.1798419
0
ARC
8
left_labelLayer
10
15.4341285
20
10.2957576
40
0.1324781
50
161.8434648
51
171.7848061
0
ARC
8
left_labelLayer
10
15.5229931
20
10.2824124
40
0.2223383
50
171.653327
51
178.4377719
0
ARC
8
left_labelLayer
10
15.6065359
20
10.2788493
40
0.3059499
50
178.19727
51
180.0243186
0
LINE
8
left_labelLayer
10
15.6845703
20
9.8763757
11
15.6845703
21
9.8267663
0
LINE
8
left_labelLayer
10
15.4923828
20
9.9459069
11
15.4923828
21
10.2005944
0
LINE
8
left_labelLayer
10
15.4923828
20
10.2005944
11
15.4310547
21
10.2005944
0
LINE
8
left_labelLayer
10
15.4310547
20
10.2005944
11
15.4310547
21
10.2318444
0
LINE
8
left_labelLayer
10
15.4310547
20
10.2318444
11
15.4923828
21
10.2587976
0
LINE
8
left_labelLayer
10
15.4923828
20
10.2587976
11
15.5197266
21
10.3502038
0
LINE
8
left_labelLayer
10
15.5197266
20
10.3502038
11
15.5572266
21
10.3502038
0
LINE
8
left_labelLayer
10
15.5572266
20
10.3502038
11
15.5572266
21
10.2509851
0
LINE
8
left_labelLayer
10
15.5572266
20
10.2509851
11
15.6814453
21
10.2509851
0
LINE
8
left_labelLayer
10
15.6814453
20
10.2509851
11
15.6814453
21
10.2005944
0
LINE
8
left_labelLayer
10
15.6814453
20
10.2005944
11
15.5572266
21
10.2005944
0
LINE
8
left_labelLayer
10
15.5572266
20
10.2005944
11
15.5572266
21
9.9486413
0
ARC
8
left_labelLayer
10
15.6264226
20
10.0815188
40
0.2129561
50
269.879997
51
278.3024663
0
ARC
8
left_labelLayer
10
15.6286056
20
10.0639768
40
0.1952829
50
278.4118817
51
279.0074698
0
ARC
8
left_labelLayer
10
15.6046031
20
10.2173167
40
0.3504897
50
278.958281
51
280.5110044
0
ARC
8
left_labelLayer
10
15.627377
20
10.0951564
40
0.2262248
50
280.4839747
51
282.6285311
0
ARC
8
left_labelLayer
10
15.6472966
20
10.006697
40
0.1355505
50
282.5871425
51
285.5787887
0
ARC
8
left_labelLayer
10
15.6575449
20
9.9689871
40
0.0964739
50
285.7306322
51
286.2680348
0
ARC
8
left_labelLayer
10
15.6573067
20
9.8844292
40
0.0637834
50
287.9895683
51
295.3052585
0
ARC
8
left_labelLayer
10
15.6419086
20
9.9310225
40
0.1128546
50
283.3086929
51
288.119149
0
ARC
8
left_labelLayer
10
15.6256912
20
9.998678
40
0.1824264
50
280.0059493
51
283.3739479
0
ARC
8
left_labelLayer
10
15.6147772
20
10.0578404
40
0.2425858
50
279.1888755
51
280.1165972
0
ARC
8
left_labelLayer
10
15.6081294
20
10.0957099
40
0.2810312
50
275.5257553
51
279.2939123
0
ARC
8
left_labelLayer
10
15.6156507
20
10.0171198
40
0.2020821
50
270.8925541
51
275.5488149
0
ARC
8
left_labelLayer
10
15.6166075
20
9.9794573
40
0.1644097
50
269.9979137
51
270.7635923
0
ARC
8
left_labelLayer
10
15.6139844
20
9.9843881
40
0.1693608
50
253.7848156
51
270.8854429
0
ARC
8
left_labelLayer
10
15.59392
20
9.9159607
40
0.0980525
50
190.3817828
51
253.8772612
0
ARC
8
left_labelLayer
10
15.6961858
20
9.9436121
40
0.2038158
50
179.354861
51
192.8478523
0
ARC
8
left_labelLayer
10
15.6878021
20
9.9478257
40
0.1305781
50
179.642129
51
189.7507278
0
ARC
8
left_labelLayer
10
15.6417042
20
9.9396031
40
0.0837542
50
189.5478405
51
205.7869718
0
ARC
8
left_labelLayer
10
15.6227574
20
9.9308663
40
0.0628944
50
206.1291188
51
221.4087188
0
ARC
8
left_labelLayer
10
15.6206357
20
9.9292564
40
0.0602386
50
221.595082
51
262.3504407
0
ARC
8
left_labelLayer
10
15.625686
20
9.9552244
40
0.0866616
50
261.3264892
51
270.1920986
0
LINE
8
top_outsideCutPath
10
17.368
20
4.007
11
17.368
21
3.05425
0
LINE
8
top_outsideCutPath
10
17.368
20
3.05425
11
17.25
21
3.05425
0
LINE
8
top_outsideCutPath
10
17.25
20
3.05425
11
17.25
21
1.19575
0
LINE
8
top_outsideCutPath
10
17.25
20
1.19575
11
17.368
21
1.19575
0
LINE
8
top_outsideCutPath
10
17.368
20
1.19575
11
17.368
21
0.243
0
LINE
8
top_outsideCutPath
10
17.368
20
0.243
11
19.10375
21
0.243
0
LINE
8
top_outsideCutPath
10
19.10375
20
0.243
11
19.10375
21
0.125
0
LINE
8
top_outsideCutPath
10
19.10375
20
0.125
11
20.96225
21
0.125
0
LINE
8
top_outsideCutPath
10
20.96225
20
0.125
11
20.96225
21
0.243
0
LINE
8
top_outsideCutPath
10
20.96225
20
0.243
11
22.82075
21
0.243
0
LINE
8
top_outsideCutPath
10
22.82075
20
0.243
11
22.82075
21
0.125
0
LINE
8
top_outsideCutPath
10
22.82075
20
0.125
11
24.67925
21
0.125
0
LINE
8
top_outsideCutPath
10
24.67925
20
0.125
11
24.67925
21
0.243
0
LINE
8
top_outsideCutPath
10
24.67925
20
0.243
11
26.53775
21
0.243
0
LINE
8
top_outsideCutPath
10
26.53775
20
0.243
11
26.53775
21
0.125
0
LINE
8
top_outsideCutPath
10
26.53775
20
0.125
11
28.39625
21
0.125
0
LINE
8
top_outsideCutPath
10
28.39625
20
0.125
11
28.39625
21
0.243
0
LINE
8
top_outsideCutPath
10
28.39625
20
0.243
11
30.132
21
0.243
0
LINE
8
top_outsideCutPath
10
30.132
20
0.243
11
30.132
21
1.19575
0
LINE
8
top_outsideCutPath
10
30.132
20
1.19575
11
30.25
21
1.19575
0
LINE
8
top_outsideCutPath
10
30.25
20
1.19575
11
30.25
21
3.05425
0
LINE
8
top_outsideCutPath
10
30.25
20
3.05425
11
30.132
21
3.05425
0
LINE
8
top_outsideCutPath
10
30.132
20
3.05425
11
30.132
21
4.007
0
LINE
8
top_outsideCutPath
10
30.132
20
4.007
11
28.39625
21
4.007
0
LINE
8
top_outsideCutPath
10
28.39625
20
4.007
11
28.39625
21
4.125
0
LINE
8
top_outsideCutPath
10
28.39625
20
4.125
11
26.53775
21
4.125
0
LINE
8
top_outsideCutPath
10
26.53775
20
4.125
11
26.53775
21
4.007
0
LINE
8
top_outsideCutPath
10
26.53775
20
4.007
11
24.67925
21
4.007
0
LINE
8
top_outsideCutPath
10
24.67925
20
4.007
11
24.67925
21
4.125
0
LINE
8
top_outsideCutPath
10
24.67925
20
4.125
11
22.82075
21
4.125
0
LINE
8
top_outsideCutPath
10
22.82075
20
4.125
11
22.82075
21
4.007
0
LINE
8
top_outsideCutPath
10
22.82075
20
4.007
11
20.96225
21
4.007
0
LINE
8
top_outsideCutPath
10
20.96225
20
4.007
11
20.96225
21
4.125
0
LINE
8
top_outsideCutPath
10
20.96225
20
4.125
11
19.10375
21
4.125
0
LINE
8
top_outsideCutPath
10
19.10375
20
4.125
11
19.10375
21
4.007
0
LINE
8
top_outsideCutPath
10
19.10375
20
4.007
11
17.368
21
4.007
0
LINE
8
top_labelLayer
10
23.4039029
20
2.0109375
11
23.4039029
21
1.9613281
0
LINE
8
top_labelLayer
10
23.2117154
20
2.0804688
11
23.2117154
21
2.3351563
0
LINE
8
top_labelLayer
10
23.2117154
20
2.3351563
11
23.1503873
21
2.3351563
0
LINE
8
top_labelLayer
10
23.1503873
20
2.3351563
11
23.1503873
21
2.3664063
0
LINE
8
top_labelLayer
10
23.1503873
20
2.3664063
11
23.2117154
21
2.3933594
0
LINE
8
top_labelLayer
10
23.2117154
20
2.3933594
11
23.2390592
21
2.4847656
0
LINE
8
top_labelLayer
10
23.2390592
20
2.4847656
11
23.2765592
21
2.4847656
0
LINE
8
top_labelLayer
10
23.2765592
20
2.4847656
11
23.2765592
21
2.3855469
0
LINE
8
top_labelLayer
10
23.2765592
20
2.3855469
11
23.4007779
21
2.3855469
0
LINE
8
top_labelLayer
10
23.4007779
20
2.3855469
11
23.4007779
21
2.3351563
0
LINE
8
top_labelLayer
10
23.4007779
20
2.3351563
11
23.2765592
21
2.3351563
0
LINE
8
top_labelLayer
10
23.2765592
20
2.3351563
11
23.2765592
21
2.0832031
0
ARC
8
top_labelLayer
10
23.3457552
20
2.2160806
40
0.2129561
50
269.879997
51
278.3024663
0
ARC
8
top_labelLayer
10
23.3479382
20
2.1985386
40
0.1952829
50
278.4118817
51
279.0074698
0
ARC
8
top_labelLayer
10
23.3239357
20
2.3518785
40
0.3504897
50
278.958281
51
280.5110044
0
ARC
8
top_labelLayer
10
23.3467096
20
2.2297182
40
0.2262248
50
280.4839747
51
282.6285311
0
ARC
8
top_labelLayer
10
23.3666292
20
2.1412588
40
0.1355505
50
282.5871425
51
285.5787887
0
ARC
8
top_labelLayer
10
23.3768775
20
2.1035489
40
0.0964739
50
285.7306322
51
286.2680348
0
ARC
8
top_labelLayer
10
23.3766393
20
2.0189911
40
0.0637834
50
287.9895683
51
295.3052585
0
ARC
8
top_labelLayer
10
23.3612413
20
2.0655843
40
0.1128546
50
283.3086929
51
288.119149
0
ARC
8
top_labelLayer
10
23.3450238
20
2.1332398
40
0.1824264
50
280.0059493
51
283.3739479
0
ARC
8
top_labelLayer
10
23.3341099
20
2.1924023
40
0.2425858
50
279.1888755
51
280.1165972
0
ARC
8
top_labelLayer
10
23.327462
20
2.2302717
40
0.2810312
50
275.5257553
51
279.2939123
0
ARC
8
top_labelLayer
10
23.3349833
20
2.1516816
40
0.2020821
50
270.8925541
51
275.5488149
0
ARC
8
top_labelLayer
10
23.3359402
20
2.1140191
40
0.1644097
50
269.9979137
51
270.7635923
0
ARC
8
top_labelLayer
10
23.333317
20
2.1189499
40
0.1693608
50
253.7848156
51
270.8854429
0
ARC
8
top_labelLayer
10
23.3132526
20
2.0505225
40
0.0980525
50
190.3817828
51
253.8772612
0
ARC
8
top_labelLayer
10
23.4155184
20
2.0781739
40
0.2038158
50
179.354861
51
192.8478523
0
ARC
8
top_labelLayer
10
23.4071347
20
2.0823875
40
0.1305781
50
179.642129
51
189.7507278
0
ARC
8
top_labelLayer
10
23.3610369
20
2.0741649
40
0.0837542
50
189.5478405
51
205.7869718
0
ARC
8
top_labelLayer
10
23.34209
20
2.0654281
40
0.0628944
50
206.1291188
51
221.4087188
0
ARC
8
top_labelLayer
10
23.3399683
20
2.0638183
40
0.0602386
50
221.595082
51
262.3504407
0
ARC
8
top_labelLayer
10
23.3450186
20
2.0897862
40
0.0866616
50
261.3264892
51
270.1920986
0
ARC
8
top_labelLayer
10
23.5240397
20
2.1696169
40
0.334949
50
349.1763443
51
0.3862683
0
ARC
8
top_labelLayer
10
23.6368123
20
2.1471368
40
0.219963
50
330.2506036
51
349.4115498
0
ARC
8
top_labelLayer
10
23.6715081
20
2.129104
40
0.1808988
50
318.1444194
51
329.7564337
0
ARC
8
top_labelLayer
10
23.6777796
20
2.1240795
40
0.1728754
50
278.8960073
51
317.9978505
0
ARC
8
top_labelLayer
10
23.661641
20
2.2013961
40
0.2517892
50
269.7502702
51
279.8035482
0
ARC
8
top_labelLayer
10
23.6590242
20
2.1578367
40
0.2082329
50
253.543622
51
270.4180554
0
ARC
8
top_labelLayer
10
23.6520897
20
2.1310178
40
0.1805508
50
238.811443
51
253.2431052
0
ARC
8
top_labelLayer
10
23.6498557
20
2.1265239
40
0.1755499
50
207.7947236
51
238.675642
0
ARC
8
top_labelLayer
10
23.6820384
20
2.1462274
40
0.2132212
50
205.6570391
51
208.4459165
0
ARC
8
top_labelLayer
10
23.7066836
20
2.1564868
40
0.2398827
50
188.9104529
51
205.3171201
0
ARC
8
top_labelLayer
10
23.7899956
20
2.1705981
40
0.3243765
50
179.7744522
51
189.0935728
0
ARC
8
top_labelLayer
10
23.8022995
20
2.1741553
40
0.3366855
50
169.244328
51
180.3880586
0
ARC
8
top_labelLayer
10
23.6879613
20
2.1967561
40
0.2201399
50
150.7111349
51
169.4696653
0
ARC
8
top_labelLayer
10
23.6514671
20
2.215497
40
0.179149
50
138.1762471
51
150.2287576
0
ARC
8
top_labelLayer
10
23.645392
20
2.2201584
40
0.1715143
50
99.1759624
51
137.9833325
0
ARC
8
top_labelLayer
10
23.6621028
20
2.1415151
40
0.2518471
50
89.7326528
51
100.0759795
0
ARC
8
top_labelLayer
10
23.6654421
20
2.1754789
40
0.2178912
50
73.5221181
51
90.5690812
0
ARC
8
top_labelLayer
10
23.67822
20
2.2219035
40
0.1697515
50
41.1447204
51
73.2132889
0
ARC
8
top_labelLayer
10
23.653829
20
2.2009397
40
0.2019127
50
13.5015179
51
41.0704863
0
ARC
8
top_labelLayer
10
23.559582
20
2.1762781
40
0.2993192
50
1.1278154
51
13.8797899
0
ARC
8
top_labelLayer
10
23.4789462
20
2.1719362
40
0.3800349
50
359.9907787
51
1.5430191
0
ARC
8
top_labelLayer
10
23.8611658
20
2.1701898
40
0.3283609
50
179.7059533
51
187.916232
0
ARC
8
top_labelLayer
10
23.7407443
20
2.152891
40
0.2067053
50
187.7640742
51
200.0974121
0
ARC
8
top_labelLayer
10
23.6743945
20
2.1285826
40
0.1360427
50
200.085069
51
216.9130132
0
ARC
8
top_labelLayer
10
23.6501628
20
2.1112801
40
0.106279
50
217.3009009
51
261.7098175
0
ARC
8
top_labelLayer
10
23.6614099
20
2.1649515
40
0.1610467
50
260.503336
51
270.2476757
0
ARC
8
top_labelLayer
10
23.6635567
20
2.1545168
40
0.1506175
50
269.4481605
51
284.7253533
0
ARC
8
top_labelLayer
10
23.6754805
20
2.110294
40
0.1048167
50
284.5660678
51
322.63358
0
ARC
8
top_labelLayer
10
23.6476064
20
2.1304335
40
0.1391961
50
323.0085069
51
342.6391979
0
ARC
8
top_labelLayer
10
23.5678689
20
2.1564943
40
0.2230799
50
342.3615719
51
353.7538372
0
ARC
8
top_labelLayer
10
23.4502467
20
2.1706727
40
0.3415489
50
353.5362747
51
0.2016839
0
ARC
8
top_labelLayer
10
23.4682664
20
2.1735276
40
0.3235314
50
359.7073289
51
7.8973263
0
ARC
8
top_labelLayer
10
23.5867468
20
2.1905129
40
0.2038416
50
7.7440828
51
20.0691926
0
ARC
8
top_labelLayer
10
23.6527672
20
2.2147394
40
0.1335167
50
20.0261614
51
37.4346543
0
ARC
8
top_labelLayer
10
23.6746796
20
2.2302868
40
0.1066711
50
37.9579729
51
80.4003659
0
ARC
8
top_labelLayer
10
23.6622321
20
2.1747485
40
0.1635352
50
79.3451919
51
90.3178771
0
ARC
8
top_labelLayer
10
23.6599259
20
2.1839625
40
0.1543251
50
89.4806306
51
103.8801225
0
ARC
8
top_labelLayer
10
23.6469585
20
2.2333455
40
0.1032759
50
103.4683454
51
142.3119643
0
ARC
8
top_labelLayer
10
23.6721686
20
2.2156159
40
0.1340722
50
142.902633
51
162.3748601
0
ARC
8
top_labelLayer
10
23.7516019
20
2.1891456
40
0.2177947
50
162.0654193
51
173.1675171
0
ARC
8
top_labelLayer
10
23.8754877
20
2.1733469
40
0.3426817
50
173.0089817
51
180.2460994
0
LINE
8
top_labelLayer
10
24.0374967
20
2.0125
11
24.0328092
21
2.0125
0
LINE
8
top_labelLayer
10
24.0374967
20
1.9414063
11
24.0374967
21
1.7652344
0
LINE
8
top_labelLayer
10
24.0374967
20
1.7652344
11
23.9726529
21
1.7652344
0
LINE
8
top_labelLayer
10
23.9726529
20
1.7652344
11
23.9726529
21
2.3855469
0
LINE
8
top_labelLayer
10
23.9726529
20
2.3855469
11
24.0253873
21
2.3855469
0
LINE
8
top_labelLayer
10
24.0253873
20
2.3855469
11
24.0343717
21
2.3269531
0
LINE
8
top_labelLayer
10
24.0343717
20
2.3269531
11
24.0374967
21
2.3269531
0
LINE
8
top_labelLayer
10
24.0374967
20
2.1863281
11
24.0374967
21
2.171875
0
ARC
8
top_labelLayer
10
24.1707781
20
2.1462909
40
0.1966845
50
255.7755261
51
270.3185795
0
ARC
8
top_labelLayer
10
24.1651712
20
2.1213724
40
0.1711537
50
245.980847
51
255.5451934
0
ARC
8
top_labelLayer
10
24.1542934
20
2.0960725
40
0.1436172
50
215.5851757
51
245.8363402
0
ARC
8
top_labelLayer
10
23.4240392
20
1.9355689
40
0.6136116
50
2.9502649
51
7.2023732
0
ARC
8
top_labelLayer
10
23.5232955
20
1.9411207
40
0.5142013
50
0.0318203
51
2.9017011
0
ARC
8
top_labelLayer
10
24.1803339
20
2.226638
40
0.1745439
50
132.3563722
51
144.9194924
0
ARC
8
top_labelLayer
10
24.1535937
20
2.2558122
40
0.1349693
50
115.4003608
51
132.3120532
0
ARC
8
top_labelLayer
10
24.1640266
20
2.2304149
40
0.1623933
50
97.706772
51
114.8818812
0
ARC
8
top_labelLayer
10
24.1713085
20
2.1831795
40
0.2101805
50
89.8464685
51
97.9471156
0
ARC
8
top_labelLayer
10
24.1738792
20
2.1946074
40
0.1987621
50
74.1924761
51
90.5787009
0
ARC
8
top_labelLayer
10
24.1876317
20
2.2446029
40
0.1469115
50
38.0522926
51
74.0416798
0
ARC
8
top_labelLayer
10
24.1496962
20
2.2155272
40
0.1947061
50
16.3357017
51
37.9089529
0
ARC
8
top_labelLayer
10
24.0500553
20
2.1848357
40
0.2989604
50
4.5765277
51
16.609187
0
ARC
8
top_labelLayer
10
23.9273357
20
2.1726072
40
0.4222711
50
359.9006455
51
4.9018473
0
ARC
8
top_labelLayer
10
23.9694361
20
2.1696309
40
0.3801766
50
350.6560109
51
0.3382065
0
ARC
8
top_labelLayer
10
24.1019623
20
2.1470873
40
0.2457497
50
335.830575
51
350.8255813
0
ARC
8
top_labelLayer
10
24.1602602
20
2.1219253
40
0.1822623
50
321.3163636
51
335.5435677
0
ARC
8
top_labelLayer
10
24.1825528
20
2.1037616
40
0.1535079
50
274.0639876
51
321.4079794
0
ARC
8
top_labelLayer
10
24.1721668
20
2.16956
40
0.2199509
50
269.9231219
51
275.5481192
0
ARC
8
top_labelLayer
10
24.1611602
20
2.1514512
40
0.1868348
50
89.5901429
51
100.3501968
0
ARC
8
top_labelLayer
10
24.1478389
20
2.2214348
40
0.1155977
50
100.0870058
51
118.1915464
0
ARC
8
top_labelLayer
10
24.134189
20
2.2480573
40
0.0856867
50
118.5568718
51
141.0245594
0
ARC
8
top_labelLayer
10
24.1549889
20
2.2333854
40
0.1110979
50
141.8893332
51
160.5972789
0
ARC
8
top_labelLayer
10
24.2280875
20
2.2065644
40
0.1889579
50
160.2898004
51
171.2449412
0
ARC
8
top_labelLayer
10
24.3482529
20
2.1871925
40
0.310673
50
171.087135
51
178.3250256
0
ARC
8
top_labelLayer
10
24.4491758
20
2.1823701
40
0.4116982
50
178.0647178
51
179.4491525
0
ARC
8
top_labelLayer
10
24.4662726
20
2.1702026
40
0.4287792
50
179.776523
51
185.7072608
0
ARC
8
top_labelLayer
10
24.2972264
20
2.1527891
40
0.2588397
50
185.5929881
51
194.2045983
0
ARC
8
top_labelLayer
10
24.1889151
20
2.1246804
40
0.1469441
50
193.942861
51
208.021548
0
ARC
8
top_labelLayer
10
24.1450874
20
2.1023832
40
0.097783
50
208.5530178
51
217.5614643
0
ARC
8
top_labelLayer
10
24.1415323
20
2.1009075
40
0.0940706
50
218.1689967
51
253.8047235
0
ARC
8
top_labelLayer
10
24.1589824
20
2.1547127
40
0.1506178
50
253.1387203
51
266.8478494
0
ARC
8
top_labelLayer
10
24.1638765
20
2.2124439
40
0.2085378
50
266.3774293
51
270.0502001
0
ARC
8
top_labelLayer
10
24.1655353
20
2.1131577
40
0.1092614
50
269.2259063
51
292.0427885
0
ARC
8
top_labelLayer
10
24.1670095
20
2.1043705
40
0.1005818
50
293.1430684
51
324.1353076
0
ARC
8
top_labelLayer
10
24.1444764
20
2.1233725
40
0.129994
50
323.166602
51
325.0092168
0
ARC
8
top_labelLayer
10
24.1216521
20
2.1374573
40
0.1567772
50
325.5755343
51
344.15048
0
ARC
8
top_labelLayer
10
24.0405199
20
2.1614406
40
0.2413768
50
343.9336815
51
355.1135518
0
ARC
8
top_labelLayer
10
23.9369743
20
2.171948
40
0.3454451
50
354.8400252
51
0.1174641
0
ARC
8
top_labelLayer
10
23.955198
20
2.1743063
40
0.3272247
50
359.7110838
51
7.8611971
0
ARC
8
top_labelLayer
10
24.0741745
20
2.1912669
40
0.2070474
50
7.7149805
51
19.8857069
0
ARC
8
top_labelLayer
10
24.1396109
20
2.2149012
40
0.1374736
50
19.8994042
51
35.8979054
0
ARC
8
top_labelLayer
10
24.1688003
20
2.2370064
40
0.1008703
50
35.4482068
51
85.2265517
0
ARC
8
top_labelLayer
10
24.1627032
20
2.1987534
40
0.1395279
50
84.038608
51
90.0847911
0
LINE
8
back_outsideCutPath
10
0
20
40.25
11
0
21
38.61325
0
LINE
8
back_outsideCutPath
10
0
20
38.61325
11
0.118
21
38.61325
0
LINE
8
back_outsideCutPath
10
0.118
20
38.61325
11
0.118
21
36.75475
0
LINE
8
back_outsideCutPath
10
0.118
20
36.75475
11
0
21
36.75475
0
LINE
8
back_outsideCutPath
10
0
20
36.75475
11
0
21
34.89625
0
LINE
8
back_outsideCutPath
10
0
20
34.89625
11
0.118
21
34.89625
0
LINE
8
back_outsideCutPath
10
0.118
20
34.89625
11
0.118
21
33.03775
0
LINE
8
back_outsideCutPath
10
0.118
20
33.03775
11
0
21
33.03775
0
LINE
8
back_outsideCutPath
10
0
20
33.03775
11
0
21
31.17925
0
LINE
8
back_outsideCutPath
10
0
20
31.17925
11
0.118
21
31.17925
0
LINE
8
back_outsideCutPath
10
0.118
20
31.17925
11
0.118
21
29.32075
0
LINE
8
back_outsideCutPath
10
0.118
20
29.32075
11
0
21
29.32075
0
LINE
8
back_outsideCutPath
10
0
20
29.32075
11
0
21
27.46225
0
LINE
8
back_outsideCutPath
10
0
20
27.46225
11
0.118
21
27.46225
0
LINE
8
back_outsideCutPath
10
0.118
20
27.46225
11
0.118
21
25.60375
0
LINE
8
back_outsideCutPath
10
0.118
20
25.60375
11
0
21
25.60375
0
LINE
8
back_outsideCutPath
10
0
20
25.60375
11
0
21
23.74525
0
LINE
8
back_outsideCutPath
10
0
20
23.74525
11
0.118
21
23.74525
0
LINE
8
back_outsideCutPath
10
0.118
20
23.74525
11
0.118
21
21.88675
0
LINE
8
back_outsideCutPath
10
0.118
20
21.88675
11
0
21
21.88675
0
LINE
8
back_outsideCutPath
10
0
20
21.88675
11
0
21
20.25
0
LINE
8
back_outsideCutPath
10
0
20
20.25
11
1.85375
21
20.25
0
LINE
8
back_outsideCutPath
10
1.85375
20
20.25
11
1.85375
21
20.368
0
LINE
8
back_outsideCutPath
10
1.85375
20
20.368
11
3.71225
21
20.368
0
LINE
8
back_outsideCutPath
10
3.71225
20
20.368
11
3.71225
21
20.25
0
LINE
8
back_outsideCutPath
10
3.71225
20
20.25
11
5.57075
21
20.25
0
LINE
8
back_outsideCutPath
10
5.57075
20
20.25
11
5.57075
21
20.368
0
LINE
8
back_outsideCutPath
10
5.57075
20
20.368
11
7.42925
21
20.368
0
LINE
8
back_outsideCutPath
10
7.42925
20
20.368
11
7.42925
21
20.25
0
LINE
8
back_outsideCutPath
10
7.42925
20
20.25
11
9.28775
21
20.25
0
LINE
8
back_outsideCutPath
10
9.28775
20
20.25
11
9.28775
21
20.368
0
LINE
8
back_outsideCutPath
10
9.28775
20
20.368
11
11.14625
21
20.368
0
LINE
8
back_outsideCutPath
10
11.14625
20
20.368
11
11.14625
21
20.25
0
LINE
8
back_outsideCutPath
10
11.14625
20
20.25
11
13
21
20.25
0
LINE
8
back_outsideCutPath
10
13
20
20.25
11
13
21
21.88675
0
LINE
8
back_outsideCutPath
10
13
20
21.88675
11
12.882
21
21.88675
0
LINE
8
back_outsideCutPath
10
12.882
20
21.88675
11
12.882
21
23.74525
0
LINE
8
back_outsideCutPath
10
12.882
20
23.74525
11
13
21
23.74525
0
LINE
8
back_outsideCutPath
10
13
20
23.74525
11
13
21
25.60375
0
LINE
8
back_outsideCutPath
10
13
20
25.60375
11
12.882
21
25.60375
0
LINE
8
back_outsideCutPath
10
12.882
20
25.60375
11
12.882
21
27.46225
0
LINE
8
back_outsideCutPath
10
12.882
20
27.46225
11
13
21
27.46225
0
LINE
8
back_outsideCutPath
10
13
20
27.46225
11
13
21
29.32075
0
LINE
8
back_outsideCutPath
10
13
20
29.32075
11
12.882
21
29.32075
0
LINE
8
back_outsideCutPath
10
12.882
20
29.32075
11
12.882
21
31.17925
0
LINE
8
back_outsideCutPath
10
12.882
20
31.17925
11
13
21
31.17925
0
LINE
8
back_outsideCutPath
10
13
20
31.17925
11
13
21
33.03775
0
LINE
8
back_outsideCutPath
10
13
20
33.03775
11
12.882
21
33.03775
0
LINE
8
back_outsideCutPath
10
12.882
20
33.03775
11
12.882
21
34.89625
0
LINE
8
back_outsideCutPath
10
12.882
20
34.89625
11
13
21
34.89625
0
LINE
8
back_outsideCutPath
10
13
20
34.89625
11
13
21
36.75475
0
LINE
8
back_outsideCutPath
10
13
20
36.75475
11
12.882
21
36.75475
0
LINE
8
back_outsideCutPath
10
12.882
20
36.75475
11
12.882
21
38.61325
0
LINE
8
back_outsideCutPath
10
12.882
20
38.61325
11
13
21
38.61325
0
LINE
8
back_outsideCutPath
10
13
20
38.61325
11
13
21
40.25
0
LINE
8
back_outsideCutPath
10
13
20
40.25
11
11.14625
21
40.25
0
LINE
8
back_outsideCutPath
10
11.14625
20
40.25
11
11.14625
21
40.132
0
LINE
8
back_outsideCutPath
10
11.14625
20
40.132
11
9.28775
21
40.132
0
LINE
8
back_outsideCutPath
10
9.28775
20
40.132
11
9.28775
21
40.25
0
LINE
8
back_outsideCutPath
10
9.28775
20
40.25
11
7.42925
21
40.25
0
LINE
8
back_outsideCutPath
10
7.42925
20
40.25
11
7.42925
21
40.132
0
LINE
8
back_outsideCutPath
10
7.42925
20
40.132
11
5.57075
21
40.132
0
LINE
8
back_outsideCutPath
10
5.57075
20
40.132
11
5.57075
21
40.25
0
LINE
8
back_outsideCutPath
10
5.57075
20
40.25
11
3.71225
21
40.25
0
LINE
8
back_outsideCutPath
10
3.71225
20
40.25
11
3.71225
21
40.132
0
LINE
8
back_outsideCutPath
10
3.71225
20
40.132
11
1.85375
21
40.132
0
LINE
8
back_outsideCutPath
10
1.85375
20
40.132
11
1.85375
21
40.25
0
LINE
8
back_outsideCutPath
10
1.85375
20
40.25
11
0
21
40.25
0
LINE
8
back_labelLayer
10
4.0155273
20
29.4540182
11
4.000293
21
29.4540182
0
LINE
8
back_labelLayer
10
4.000293
20
29.4540182
11
3.9558594
21
29.2750143
0
LINE
8
back_labelLayer
10
3.9558594
20
29.2750143
11
3.8047852
21
29.2750143
0
LINE
8
back_labelLayer
10
3.8047852
20
29.2750143
11
3.8047852
21
31.250405
0
LINE
8
back_labelLayer
10
3.8047852
20
31.250405
11
4.0155273
21
31.250405
0
LINE
8
back_labelLayer
10
4.0155273
20
31.250405
11
4.0155273
21
30.7705222
0
LINE
8
back_labelLayer
10
4.0053711
20
30.481069
11
4.0155273
21
30.481069
0
ARC
8
back_labelLayer
10
4.4585687
20
30.0452067
40
0.6440965
50
74.2392654
51
90.5624345
0
ARC
8
back_labelLayer
10
4.5011589
20
30.201447
40
0.482164
50
38.5630597
51
74.0670704
0
ARC
8
back_labelLayer
10
4.3915532
20
30.1162214
40
0.6209971
50
16.4709958
51
38.4075325
0
ARC
8
back_labelLayer
10
4.0758052
20
30.0172119
40
0.9518753
50
5.1338708
51
16.7973912
0
ARC
8
back_labelLayer
10
3.6772242
20
29.9748709
40
1.3526616
50
359.8778457
51
5.409404
0
ARC
8
back_labelLayer
10
3.7942831
20
29.9646971
40
1.2356213
50
350.6562135
51
0.3380368
0
ARC
8
back_labelLayer
10
4.2250335
20
29.8914294
40
0.7986941
50
335.8306323
51
350.8254976
0
ARC
8
back_labelLayer
10
4.4145186
20
29.8096452
40
0.5923414
50
321.3161737
51
335.5436416
0
ARC
8
back_labelLayer
10
4.4869599
20
29.7506168
40
0.4988997
50
274.0639896
51
321.4081112
0
ARC
8
back_labelLayer
10
4.4532099
20
29.9644373
40
0.7148142
50
269.9227447
51
275.5479462
0
ARC
8
back_labelLayer
10
4.448693
20
29.8888429
40
0.6392291
50
255.7755271
51
270.3184788
0
ARC
8
back_labelLayer
10
4.4304467
20
29.8077833
40
0.5561758
50
245.9800491
51
255.5456656
0
ARC
8
back_labelLayer
10
4.3951164
20
29.7256266
40
0.4667537
50
215.5849513
51
245.8362479
0
ARC
8
back_labelLayer
10
-0.3783566
20
30.7668132
40
4.3938855
50
358.1122804
51
0.048364
0
ARC
8
back_labelLayer
10
0.8445052
20
30.7257581
40
3.1703352
50
355.7238726
51
358.1258451
0
ARC
8
back_labelLayer
10
1.3488928
20
30.6913952
40
2.6647916
50
355.4730612
51
355.652027
0
ARC
8
back_labelLayer
10
4.4085523
20
30.2070027
40
0.4791461
50
95.1835096
51
145.110946
0
ARC
8
back_labelLayer
10
4.4506675
20
29.9695257
40
0.7197483
50
89.8743391
51
96.8146813
0
ARC
8
back_labelLayer
10
4.4173643
20
29.9206298
40
0.592194
50
89.573031
51
100.7324976
0
ARC
8
back_labelLayer
10
4.3735254
20
30.1421135
40
0.3664252
50
100.4469002
51
119.6700592
0
ARC
8
back_labelLayer
10
4.3328766
20
30.2181143
40
0.2802769
50
120.1405111
51
142.4247427
0
ARC
8
back_labelLayer
10
4.400126
20
30.1736275
40
0.3607498
50
143.3381395
51
161.2560931
0
ARC
8
back_labelLayer
10
4.6813731
20
30.073774
40
0.6591808
50
160.8925893
51
171.2335312
0
ARC
8
back_labelLayer
10
5.1509035
20
29.9980281
40
1.1347751
50
171.0668527
51
177.8457468
0
ARC
8
back_labelLayer
10
5.6393027
20
29.9731877
40
1.6237759
50
177.6176633
51
180.0423666
0
ARC
8
back_labelLayer
10
5.4089263
20
29.9665441
40
1.3934096
50
179.7761928
51
185.7074534
0
ARC
8
back_labelLayer
10
4.8595617
20
29.9099425
40
0.8411409
50
185.5925315
51
194.2050459
0
ARC
8
back_labelLayer
10
4.5076354
20
29.818606
40
0.4775669
50
193.9430608
51
208.0217799
0
ARC
8
back_labelLayer
10
4.3652514
20
29.7461719
40
0.3178584
50
208.5536315
51
217.5602765
0
ARC
8
back_labelLayer
10
4.353643
20
29.741343
40
0.3057297
50
218.1690767
51
253.8047532
0
ARC
8
back_labelLayer
10
4.4103503
20
29.9161777
40
0.4894758
50
253.1382809
51
266.8483109
0
ARC
8
back_labelLayer
10
4.4262518
20
30.1036907
40
0.6776024
50
266.3774832
51
270.0510417
0
ARC
8
back_labelLayer
10
4.4313516
20
29.8461776
40
0.4201131
50
269.3868031
51
285.8629562
0
ARC
8
back_labelLayer
10
4.4625621
20
29.7333741
40
0.3030752
50
286.016358
51
326.8497126
0
ARC
8
back_labelLayer
10
4.3119221
20
29.8331684
40
0.4837696
50
326.710411
51
343.6662134
0
ARC
8
back_labelLayer
10
4.0299079
20
29.9193413
40
0.7786436
50
343.4172549
51
353.6368417
0
ARC
8
back_labelLayer
10
3.6039883
20
29.9698779
40
1.207544
50
353.493515
51
0.2205459
0
ARC
8
back_labelLayer
10
3.5664466
20
29.9795642
40
1.2450871
50
359.7681558
51
6.3095783
0
ARC
8
back_labelLayer
10
4.0354443
20
30.033386
40
0.7730178
50
6.1648458
51
16.0395779
0
ARC
8
back_labelLayer
10
4.3375703
20
30.1224213
40
0.4580573
50
15.777967
51
32.0152128
0
ARC
8
back_labelLayer
10
4.4316544
20
30.1762883
40
0.3497509
50
32.7039087
51
35.5235156
0
ARC
8
back_labelLayer
10
4.4662376
20
30.2008634
40
0.3073253
50
35.5408699
51
79.8011281
0
ARC
8
back_labelLayer
10
4.4249679
20
30.0254276
40
0.4873902
50
78.6779235
51
90.3750757
0
LINE
8
back_labelLayer
10
6.4098633
20
29.2750143
11
6.2537109
21
29.2750143
0
LINE
8
back_labelLayer
10
6.2537109
20
29.2750143
11
6.2118164
21
29.4730612
0
LINE
8
back_labelLayer
10
6.2118164
20
29.4730612
11
6.2016602
21
29.4730612
0
LINE
8
back_labelLayer
10
5.9680664
20
30.1014792
11
6.2041992
21
30.1090964
0
LINE
8
back_labelLayer
10
6.2041992
20
30.1090964
11
6.2041992
21
30.1954245
0
LINE
8
back_labelLayer
10
5.5148437
20
30.4087057
11
5.4500977
21
30.5699362
0
LINE
8
back_labelLayer
10
6.4098633
20
30.2246237
11
6.4098633
21
29.2750143
0
LINE
8
back_labelLayer
10
6.1991211
20
29.8336081
11
6.1991211
21
29.9592917
0
LINE
8
back_labelLayer
10
6.1991211
20
29.9592917
11
5.9883789
21
29.950405
0
ARC
8
back_labelLayer
10
5.5159626
20
30.0144546
40
0.8736635
50
314.7446862
51
321.7071009
0
ARC
8
back_labelLayer
10
5.730626
20
29.7963439
40
0.5676391
50
304.8485398
51
314.8530828
0
ARC
8
back_labelLayer
10
5.8337325
20
29.6495824
40
0.3882818
50
294.3932603
51
304.7371254
0
ARC
8
back_labelLayer
10
5.798506
20
29.7408583
40
0.4859906
50
281.2979537
51
293.7312815
0
ARC
8
back_labelLayer
10
5.7519411
20
29.9665331
40
0.7164163
50
272.9334551
51
281.4139491
0
ARC
8
back_labelLayer
10
5.7365016
20
30.198146
40
0.9485226
50
269.9541281
51
273.1488745
0
ARC
8
back_labelLayer
10
5.7311736
20
29.8963466
40
0.646739
50
258.6719631
51
270.404741
0
ARC
8
back_labelLayer
10
5.6862505
20
29.6814531
40
0.4272118
50
238.3273825
51
258.918372
0
ARC
8
back_labelLayer
10
5.6552947
20
29.6249754
40
0.362907
50
227.768952
51
237.804926
0
ARC
8
back_labelLayer
10
5.6456109
20
29.6114561
40
0.3463934
50
192.0828592
51
227.4519772
0
ARC
8
back_labelLayer
10
5.8242025
20
29.6554789
40
0.5302738
50
179.5458192
51
192.6948227
0
ARC
8
back_labelLayer
10
5.6582901
20
29.674678
40
0.3646533
50
115.490463
51
182.3568463
0
ARC
8
back_labelLayer
10
5.8409128
20
29.3397114
40
0.7458937
50
101.3568409
51
117.0798997
0
ARC
8
back_labelLayer
10
5.9875761
20
28.6543402
40
1.4467527
50
92.4696538
51
101.7065018
0
ARC
8
back_labelLayer
10
6.0297018
20
28.0444351
40
2.0579672
50
91.7162441
51
92.9097004
0
ARC
8
back_labelLayer
10
5.5989307
20
30.1986656
40
0.6052772
50
359.6931942
51
8.0037815
0
ARC
8
back_labelLayer
10
5.8278829
20
30.232021
40
0.3739127
50
7.8273348
51
20.6043466
0
ARC
8
back_labelLayer
10
5.9574518
20
30.2815889
40
0.2351899
50
20.4093833
51
41.4479018
0
ARC
8
back_labelLayer
10
5.9765967
20
30.2921122
40
0.2139275
50
42.7295468
51
71.0380487
0
ARC
8
back_labelLayer
10
5.9315247
20
30.1695625
40
0.3444841
50
70.5715357
51
83.9928864
0
ARC
8
back_labelLayer
10
5.9099934
20
29.994673
40
0.5206757
50
83.6505944
51
90.1755074
0
ARC
8
back_labelLayer
10
5.9137698
20
29.8292359
40
0.6861315
50
90.4485437
51
103.7666134
0
ARC
8
back_labelLayer
10
5.9944509
20
29.4889941
40
1.0358022
50
103.6226228
51
112.4320678
0
ARC
8
back_labelLayer
10
6.132712
20
29.1398809
40
1.411268
50
112.2120994
51
115.9642787
0
ARC
8
back_labelLayer
10
5.9112715
20
29.7146969
40
0.9716561
50
106.3568034
51
118.3350435
0
ARC
8
back_labelLayer
10
5.9527055
20
29.5866992
40
1.1061481
50
104.5165152
51
106.5489971
0
ARC
8
back_labelLayer
10
5.9223107
20
29.7133056
40
0.9759675
50
90.0714441
51
104.6521644
0
ARC
8
back_labelLayer
10
5.9261421
20
29.7992284
40
0.8900581
50
81.5680377
51
90.3249769
0
ARC
8
back_labelLayer
10
5.9776033
20
30.1344875
40
0.5508794
50
68.2273805
51
81.7494622
0
ARC
8
back_labelLayer
10
6.0492821
20
30.3128305
40
0.3586717
50
47.8682497
51
68.2934722
0
ARC
8
back_labelLayer
10
6.0609115
20
30.3360553
40
0.3337192
50
19.2332174
51
46.6739606
0
ARC
8
back_labelLayer
10
5.8671264
20
30.2639668
40
0.5404518
50
6.3377926
51
19.6815997
0
ARC
8
back_labelLayer
10
5.5806382
20
30.2274796
40
0.82923
50
359.8026737
51
6.6583106
0
ARC
8
back_labelLayer
10
5.781898
20
30.003765
40
0.5802311
50
269.5792085
51
282.0414357
0
ARC
8
back_labelLayer
10
5.8242225
20
29.8160352
40
0.3878088
50
281.7120775
51
306.459475
0
ARC
8
back_labelLayer
10
5.8429949
20
29.7851656
40
0.3518405
50
306.988122
51
313.856123
0
ARC
8
back_labelLayer
10
5.8407556
20
29.7845343
40
0.3529429
50
314.1892522
51
347.4269314
0
ARC
8
back_labelLayer
10
5.663962
20
29.8288386
40
0.5351623
50
346.9176717
51
0.2824462
0
ARC
8
back_labelLayer
10
5.5689584
20
29.8335477
40
0.6301627
50
359.8117057
51
0.0054941
0
ARC
8
back_labelLayer
10
6.0385069
20
28.4038351
40
1.547382
50
91.8564428
51
96.4478401
0
ARC
8
back_labelLayer
10
5.968719
20
29.0077133
40
0.9394878
50
96.3544246
51
102.9954862
0
ARC
8
back_labelLayer
10
5.8740022
20
29.4101299
40
0.5260818
50
102.7996853
51
113.2433606
0
ARC
8
back_labelLayer
10
5.795923
20
29.5968707
40
0.3236904
50
113.5890379
51
121.6802495
0
ARC
8
back_labelLayer
10
5.741657
20
29.6795204
40
0.2248741
50
120.9734237
51
172.4179617
0
ARC
8
back_labelLayer
10
5.8477061
20
29.6583378
40
0.3328646
50
171.2121605
51
180.2056185
0
ARC
8
back_labelLayer
10
5.8160149
20
29.6546557
40
0.3011814
50
179.526771
51
192.7786129
0
ARC
8
back_labelLayer
10
5.7141241
20
29.6299571
40
0.1963575
50
192.3262593
51
222.0581441
0
ARC
8
back_labelLayer
10
5.7065256
20
29.625404
40
0.1876736
50
222.5801062
51
229.2554113
0
ARC
8
back_labelLayer
10
5.7321564
20
29.6583963
40
0.2294082
50
229.7836698
51
254.2723704
0
ARC
8
back_labelLayer
10
5.766261
20
29.772045
40
0.3480523
50
253.939581
51
266.4536011
0
ARC
8
back_labelLayer
10
5.7771484
20
29.8975245
40
0.4739752
50
266.0782738
51
270.0590278
0
LINE
8
back_labelLayer
10
7.7720703
20
30.6194479
11
7.7073242
21
30.440444
0
LINE
8
back_labelLayer
10
7.7517578
20
29.5086081
11
7.7517578
21
29.321987
0
ARC
8
back_labelLayer
10
7.3933758
20
30.0372273
40
0.7876322
50
256.4244452
51
270.4889799
0
ARC
8
back_labelLayer
10
7.3304377
20
29.7915787
40
0.534085
50
221.7976429
51
256.8019944
0
ARC
8
back_labelLayer
10
7.3913849
20
29.8366099
40
0.6095756
50
196.0166013
51
221.1349217
0
ARC
8
back_labelLayer
10
7.6977126
20
29.9302391
40
0.9298623
50
183.5913419
51
196.3539016
0
ARC
8
back_labelLayer
10
8.0408314
20
29.9604682
40
1.2742304
50
179.9387311
51
183.9814976
0
ARC
8
back_labelLayer
10
7.9293696
20
29.9693171
40
1.1627922
50
169.8978343
51
180.3688891
0
ARC
8
back_labelLayer
10
7.524571
20
30.0441999
40
0.7511395
50
153.0874689
51
170.1051975
0
ARC
8
back_labelLayer
10
7.3709802
20
30.117592
40
0.5809777
50
138.6549144
51
152.6854859
0
ARC
8
back_labelLayer
10
7.3423223
20
30.1384758
40
0.5456768
50
101.4913006
51
138.313371
0
ARC
8
back_labelLayer
10
7.408132
20
29.8645766
40
0.8272558
50
89.5892466
51
102.1786908
0
ARC
8
back_labelLayer
10
7.4131908
20
29.7407905
40
0.9510211
50
77.7702075
51
89.9474804
0
ARC
8
back_labelLayer
10
7.3951534
20
29.6413259
40
1.0520551
50
74.6800162
51
77.9576556
0
ARC
8
back_labelLayer
10
7.4924372
20
29.993785
40
0.6864176
50
70.0944181
51
74.7387676
0
ARC
8
back_labelLayer
10
7.5848924
20
30.24716
40
0.4167027
50
63.5038295
51
70.1857928
0
ARC
8
back_labelLayer
10
7.6213913
20
30.3245615
40
0.3311528
50
62.9341927
51
63.1808792
0
ARC
8
back_labelLayer
10
7.3611247
20
29.5691789
40
0.9375271
50
68.3294668
51
74.8830659
0
ARC
8
back_labelLayer
10
7.3116895
20
29.3938875
40
1.1196466
50
74.7801947
51
77.4499349
0
ARC
8
back_labelLayer
10
7.363583
20
29.6374743
40
0.870607
50
77.300144
51
81.7343587
0
ARC
8
back_labelLayer
10
7.4014715
20
29.9014614
40
0.6039153
50
81.6910467
51
87.5078917
0
ARC
8
back_labelLayer
10
7.4087742
20
30.0378786
40
0.4673116
50
87.6751389
51
89.9742315
0
ARC
8
back_labelLayer
10
7.3985377
20
30.0378464
40
0.4674605
50
88.7194689
51
112.5666602
0
ARC
8
back_labelLayer
10
7.365321
20
30.1476708
40
0.3534839
50
114.4265537
51
161.6633208
0
ARC
8
back_labelLayer
10
7.6952867
20
30.0185182
40
0.7075763
50
160.1418296
51
175.1368552
0
ARC
8
back_labelLayer
10
8.1494969
20
29.9675171
40
1.1645402
50
174.5311216
51
180.1548476
0
ARC
8
back_labelLayer
10
8.0055452
20
29.9590983
40
1.0205979
50
179.70406
51
188.0744505
0
ARC
8
back_labelLayer
10
7.6379518
20
29.9053148
40
0.6490962
50
187.9316111
51
200.3885981
0
ARC
8
back_labelLayer
10
7.4391794
20
29.8316796
40
0.4371235
50
200.4184017
51
216.6392879
0
ARC
8
back_labelLayer
10
7.3558488
20
29.7721086
40
0.3347134
50
216.9695464
51
261.310271
0
ARC
8
back_labelLayer
10
7.3926248
20
29.943562
40
0.509862
50
260.1358571
51
270.2691039
0
ARC
8
back_labelLayer
10
7.3909256
20
30.3158947
40
0.8821984
50
270.2658903
51
286.2890766
0
ARC
8
back_labelLayer
10
7.3372979
20
30.515886
40
1.0892133
50
286.0460875
51
292.3654679
0
ARC
8
back_labelLayer
10
7.4801229
20
29.8563574
40
0.5994475
50
282.0343685
51
296.9454594
0
ARC
8
back_labelLayer
10
7.4184716
20
30.134194
40
0.8840354
50
272.5980702
51
282.1878336
0
ARC
8
back_labelLayer
10
7.4007895
20
30.4053324
40
1.155709
50
269.9657009
51
272.864466
0
LINE
8
back_labelLayer
10
8.2798828
20
29.9872214
11
8.2900391
21
29.9872214
0
LINE
8
back_labelLayer
10
8.4563477
20
30.1903464
11
8.9057617
21
30.6664206
0
LINE
8
back_labelLayer
10
8.9057617
20
30.6664206
11
9.1558594
21
30.6664206
0
LINE
8
back_labelLayer
10
9.1558594
20
30.6664206
11
8.5921875
21
30.0735495
0
LINE
8
back_labelLayer
10
8.5921875
20
30.0735495
11
9.1952148
21
29.2750143
0
LINE
8
back_labelLayer
10
9.1952148
20
29.2750143
11
8.9400391
21
29.2750143
0
LINE
8
back_labelLayer
10
8.9400391
20
29.2750143
11
8.4487305
21
29.9326315
0
LINE
8
back_labelLayer
10
8.4487305
20
29.9326315
11
8.2900391
21
29.7955222
0
LINE
8
back_labelLayer
10
8.2900391
20
29.7955222
11
8.2900391
21
29.2750143
0
LINE
8
back_labelLayer
10
8.2900391
20
29.2750143
11
8.0818359
21
29.2750143
0
LINE
8
back_labelLayer
10
8.0818359
20
29.2750143
11
8.0818359
21
31.250405
0
LINE
8
back_labelLayer
10
8.0818359
20
31.250405
11
8.2900391
21
31.250405
0
LINE
8
back_labelLayer
10
8.2900391
20
31.250405
11
8.2900391
21
30.2030417
0
ARC
8
back_labelLayer
10
9.3084757
20
29.266324
40
1.2477605
50
142.3235609
51
144.7073427
0
ARC
8
back_labelLayer
10
9.9724386
20
28.7541919
40
2.0862865
50
140.4328883
51
142.33662
0
ARC
8
back_labelLayer
10
10.8378429
20
28.0418375
40
3.207166
50
139.2798037
51
140.47054
0
ARC
8
back_labelLayer
10
11.8384642
20
27.1813954
40
4.526864
50
138.3416268
51
139.2878787
0
ARC
8
back_labelLayer
10
6.8858218
20
30.2056618
40
1.4042197
50
358.2740762
51
359.8930918
0
ARC
8
back_labelLayer
10
5.7906416
20
30.2362076
40
2.4998241
50
357.5045644
51
358.3303055
0
ARC
8
back_labelLayer
10
4.1581568
20
30.3083406
40
4.1339016
50
356.6323344
51
357.4908906
0
ARC
8
back_labelLayer
10
1.4374624
20
30.4670234
40
6.8592195
50
356.0329994
51
356.6441376
0
ARC
8
back_labelLayer
10
-1.12375
20
30.6410536
40
9.4263359
50
356.0226402
51
356.0547375
0
LINE
8
right_outsideCutPath
10
13.243
20
40.25
11
13.243
21
38.61325
0
LINE
8
right_outsideCutPath
10
13.243
20
38.61325
11
13.125
21
38.61325
0
LINE
8
right_outsideCutPath
10
13.125
20
38.61325
11
13.125
21
36.75475
0
LINE
8
right_outsideCutPath
10
13.125
20
36.75475
11
13.243
21
36.75475
0
LINE
8
right_outsideCutPath
10
13.243
20
36.75475
11
13.243
21
34.89625
0
LINE
8
right_outsideCutPath
10
13.243
20
34.89625
11
13.125
21
34.89625
0
LINE
8
right_outsideCutPath
10
13.125
20
34.89625
11
13.125
21
33.03775
0
LINE
8
right_outsideCutPath
10
13.125
20
33.03775
11
13.243
21
33.03775
0
LINE
8
right_outsideCutPath
10
13.243
20
33.03775
11
13.243
21
31.17925
0
LINE
8
right_outsideCutPath
10
13.243
20
31.17925
11
13.125
21
31.17925
0
LINE
8
right_outsideCutPath
10
13.125
20
31.17925
11
13.125
21
29.32075
0
LINE
8
right_outsideCutPath
10
13.125
20
29.32075
11
13.243
21
29.32075
0
LINE
8
right_outsideCutPath
10
13.243
20
29.32075
11
13.243
21
27.46225
0
LINE
8
right_outsideCutPath
10
13.243
20
27.46225
11
13.125
21
27.46225
0
LINE
8
right_outsideCutPath
10
13.125
20
27.46225
11
13.125
21
25.60375
0
LINE
8
right_outsideCutPath
10
13.125
20
25.60375
11
13.243
21
25.60375
0
LINE
8
right_outsideCutPath
10
13.243
20
25.60375
11
13.243
21
23.74525
0
LINE
8
right_outsideCutPath
10
13.243
20
23.74525
11
13.125
21
23.74525
0
LINE
8
right_outsideCutPath
10
13.125
20
23.74525
11
13.125
21
21.88675
0
LINE
8
right_outsideCutPath
10
13.125
20
21.88675
11
13.243
21
21.88675
0
LINE
8
right_outsideCutPath
10
13.243
20
21.88675
11
13.243
21
20.25
0
LINE
8
right_outsideCutPath
10
13.243
20
20.25
11
14.19575
21
20.25
0
LINE
8
right_outsideCutPath
10
14.19575
20
20.25
11
14.19575
21
20.368
0
LINE
8
right_outsideCutPath
10
14.19575
20
20.368
11
16.05425
21
20.368
0
LINE
8
right_outsideCutPath
10
16.05425
20
20.368
11
16.05425
21
20.25
0
LINE
8
right_outsideCutPath
10
16.05425
20
20.25
11
17.007
21
20.25
0
LINE
8
right_outsideCutPath
10
17.007
20
20.25
11
17.007
21
21.88675
0
LINE
8
right_outsideCutPath
10
17.007
20
21.88675
11
17.125
21
21.88675
0
LINE
8
right_outsideCutPath
10
17.125
20
21.88675
11
17.125
21
23.74525
0
LINE
8
right_outsideCutPath
10
17.125
20
23.74525
11
17.007
21
23.74525
0
LINE
8
right_outsideCutPath
10
17.007
20
23.74525
11
17.007
21
25.60375
0
LINE
8
right_outsideCutPath
10
17.007
20
25.60375
11
17.125
21
25.60375
0
LINE
8
right_outsideCutPath
10
17.125
20
25.60375
11
17.125
21
27.46225
0
LINE
8
right_outsideCutPath
10
17.125
20
27.46225
11
17.007
21
27.46225
0
LINE
8
right_outsideCutPath
10
17.007
20
27.46225
11
17.007
21
29.32075
0
LINE
8
right_outsideCutPath
10
17.007
20
29.32075
11
17.125
21
29.32075
0
LINE
8
right_outsideCutPath
10
17.125
20
29.32075
11
17.125
21
31.17925
0
LINE
8
right_outsideCutPath
10
17.125
20
31.17925
11
17.007
21
31.17925
0
LINE
8
right_outsideCutPath
10
17.007
20
31.17925
11
17.007
21
33.03775
0
LINE
8
right_outsideCutPath
10
17.007
20
33.03775
11
17.125
21
33.03775
0
LINE
8
right_outsideCutPath
10
17.125
20
33.03775
11
17.125
21
34.89625
0
LINE
8
right_outsideCutPath
10
17.125
20
34.89625
11
17.007
21
34.89625
0
LINE
8
right_outsideCutPath
10
17.007
20
34.89625
11
17.007
21
36.75475
0
LINE
8
right_outsideCutPath
10
17.007
20
36.75475
11
17.125
21
36.75475
0
LINE
8
right_outsideCutPath
10
17.125
20
36.75475
11
17.125
21
38.61325
0
LINE
8
right_outsideCutPath
10
17.125
20
38.61325
11
17.007
21
38.61325
0
LINE
8
right_outsideCutPath
10
17.007
20
38.61325
11
17.007
21
40.25
0
LINE
8
right_outsideCutPath
10
17.007
20
40.25
11
16.05425
21
40.25
0
LINE
8
right_outsideCutPath
10
16.05425
20
40.25
11
16.05425
21
40.132
0
LINE
8
right_outsideCutPath
10
16.05425
20
40.132
11
14.19575
21
40.132
0
LINE
8
right_outsideCutPath
10
14.19575
20
40.132
11
14.19575
21
40.25
0
LINE
8
right_outsideCutPath
10
14.19575
20
40.25
11
13.243
21
40.25
0
LINE
8
right_labelLayer
10
14.5439453
20
30.4734399
11
14.5349609
21
30.4132837
0
LINE
8
right_labelLayer
10
14.3623047
20
30.2718774
11
14.3623047
21
30.0421899
0
LINE
8
right_labelLayer
10
14.3623047
20
30.0421899
11
14.2974609
21
30.0421899
0
LINE
8
right_labelLayer
10
14.2974609
20
30.0421899
11
14.2974609
21
30.4703149
0
LINE
8
right_labelLayer
10
14.2974609
20
30.4703149
11
14.3509766
21
30.4703149
0
LINE
8
right_labelLayer
10
14.3509766
20
30.4703149
11
14.3583984
21
30.391018
0
LINE
8
right_labelLayer
10
14.3583984
20
30.391018
11
14.3615234
21
30.391018
0
ARC
8
right_labelLayer
10
14.4934412
20
30.1804562
40
0.297672
50
84.9924491
51
90.1285285
0
ARC
8
right_labelLayer
10
14.5005888
20
30.2605459
40
0.217264
50
78.4889585
51
85.0266114
0
ARC
8
right_labelLayer
10
14.4728222
20
30.1342416
40
0.2858771
50
77.4458722
51
81.6351591
0
ARC
8
right_labelLayer
10
14.485291
20
30.220171
40
0.1990479
50
81.5878192
51
87.1914046
0
ARC
8
right_labelLayer
10
14.4880001
20
30.2672433
40
0.1518998
50
87.3420074
51
89.9676118
0
ARC
8
right_labelLayer
10
14.4873671
20
30.3067901
40
0.1123552
50
89.6334499
51
137.0879368
0
ARC
8
right_labelLayer
10
14.5148374
20
30.2758805
40
0.1535702
50
135.6199093
51
138.8397157
0
ARC
8
right_labelLayer
10
14.5109026
20
30.2797257
40
0.1480774
50
138.9577831
51
174.5419872
0
ARC
8
right_labelLayer
10
14.5591705
20
30.2721789
40
0.1968659
50
173.6916753
51
180.0877441
0
ARC
8
right_labelLayer
10
14.5523016
20
30.2835353
40
0.2189723
50
139.41374
51
150.6034651
0
ARC
8
right_labelLayer
10
14.5130455
20
30.3171742
40
0.1672749
50
124.2322023
51
139.4160007
0
ARC
8
right_labelLayer
10
14.4920505
20
30.3488656
40
0.1292637
50
89.679558
51
124.4405461
0
LINE
8
right_labelLayer
10
14.6888672
20
30.4703149
11
14.6888672
21
30.0421899
0
LINE
8
right_labelLayer
10
14.6888672
20
30.0421899
11
14.6240234
21
30.0421899
0
LINE
8
right_labelLayer
10
14.6240234
20
30.0421899
11
14.6240234
21
30.4703149
0
LINE
8
right_labelLayer
10
14.6240234
20
30.4703149
11
14.6888672
21
30.4703149
0
ARC
8
right_labelLayer
10
14.6904034
20
30.5867761
40
0.0718501
50
170.8454141
51
180.3553133
0
ARC
8
right_labelLayer
10
14.6635053
20
30.5912741
40
0.0445791
50
155.9678102
51
171.0527212
0
ARC
8
right_labelLayer
10
14.6504835
20
30.5970505
40
0.0303336
50
133.7900424
51
155.9159689
0
ARC
8
right_labelLayer
10
14.6552895
20
30.5917362
40
0.0374962
50
92.6439547
51
133.4717911
0
ARC
8
right_labelLayer
10
14.6568064
20
30.5798101
40
0.049489
50
89.9658115
51
93.7614206
0
ARC
8
right_labelLayer
10
14.6574277
20
30.5910983
40
0.0382055
50
46.3709543
51
90.8875019
0
ARC
8
right_labelLayer
10
14.6612309
20
30.5950247
40
0.0327396
50
17.7246277
51
46.4474177
0
ARC
8
right_labelLayer
10
14.6435015
20
30.588919
40
0.0514879
50
4.9421459
51
18.1900784
0
ARC
8
right_labelLayer
10
14.6209575
20
30.5864797
40
0.0741599
50
359.8847363
51
5.3192143
0
ARC
8
right_labelLayer
10
14.6280247
20
30.585876
40
0.067094
50
349.8340726
51
0.3881168
0
ARC
8
right_labelLayer
10
14.6524531
20
30.5813187
40
0.0422453
50
332.6319447
51
350.0703188
0
ARC
8
right_labelLayer
10
14.6619639
20
30.5766212
40
0.0316402
50
313.6135683
51
332.2690181
0
ARC
8
right_labelLayer
10
14.6573778
20
30.5807966
40
0.0378293
50
269.1792259
51
314.280297
0
ARC
8
right_labelLayer
10
14.6564056
20
30.584158
40
0.0411891
50
250.5003485
51
270.5985848
0
ARC
8
right_labelLayer
10
14.6551596
20
30.5794979
40
0.0363822
50
225.1304156
51
249.90029
0
ARC
8
right_labelLayer
10
14.6532107
20
30.5773432
40
0.0334804
50
197.7943862
51
224.8927482
0
ARC
8
right_labelLayer
10
14.6714829
20
30.5836032
40
0.052793
50
184.9936152
51
198.2029431
0
ARC
8
right_labelLayer
10
14.6951296
20
30.5861729
40
0.0765752
50
179.8820888
51
185.369016
0
LINE
8
right_labelLayer
10
15.0287109
20
30.4703149
11
15.1767578
21
30.4703149
0
LINE
8
right_labelLayer
10
15.1767578
20
30.4703149
11
15.1767578
21
30.4292993
0
LINE
8
right_labelLayer
10
15.1767578
20
30.4292993
11
15.0974609
21
30.4199243
0
LINE
8
right_labelLayer
10
14.9513672
20
30.1101587
11
15.0271484
21
30.1101587
0
LINE
8
right_labelLayer
10
15.0064453
20
30.0519555
11
14.9287109
21
30.0519555
0
ARC
8
right_labelLayer
10
15.0148259
20
30.3545287
40
0.1053809
50
29.4581867
51
38.3572957
0
ARC
8
right_labelLayer
10
14.9717291
20
30.3299285
40
0.1550042
50
23.185493
51
29.5414758
0
ARC
8
right_labelLayer
10
14.9307596
20
30.311759
40
0.1998191
50
21.2503317
51
23.3495102
0
ARC
8
right_labelLayer
10
15.0005157
20
30.3395013
40
0.1247524
50
6.8505247
51
20.9869983
0
ARC
8
right_labelLayer
10
14.9653712
20
30.3347363
40
0.1602153
50
359.8716471
51
7.0432506
0
ARC
8
right_labelLayer
10
14.9769393
20
30.3328323
40
0.1486547
50
342.5651546
51
0.5955243
0
ARC
8
right_labelLayer
10
15.0043579
20
30.3252618
40
0.1202315
50
310.6097986
51
342.0921899
0
ARC
8
right_labelLayer
10
14.9889846
20
30.3431438
40
0.1438135
50
284.9316289
51
310.6223026
0
ARC
8
right_labelLayer
10
14.9697444
20
30.4105688
40
0.2139227
50
272.5338708
51
285.2576957
0
ARC
8
right_labelLayer
10
14.9647961
20
30.4781462
40
0.2816596
50
269.9699593
51
272.9317325
0
ARC
8
right_labelLayer
10
14.9641844
20
30.4048587
40
0.2083724
50
263.4833292
51
270.1275961
0
ARC
8
right_labelLayer
10
14.9607717
20
30.3725079
40
0.1758435
50
259.494756
51
263.3917956
0
ARC
8
right_labelLayer
10
14.9817967
20
30.0971684
40
0.1153809
50
117.3930162
51
128.4096205
0
ARC
8
right_labelLayer
10
14.9520987
20
30.1340113
40
0.0680614
50
128.0886425
51
147.1391002
0
ARC
8
right_labelLayer
10
14.9360921
20
30.1447544
40
0.0487879
50
147.5370702
51
180.2592225
0
ARC
8
right_labelLayer
10
14.9209144
20
30.1441188
40
0.0336122
50
179.2928818
51
198.3564979
0
ARC
8
right_labelLayer
10
14.9146167
20
30.1424639
40
0.0271169
50
199.228386
51
239.5697984
0
ARC
8
right_labelLayer
10
14.9202082
20
30.1502977
40
0.0367135
50
238.2375271
51
239.8310787
0
ARC
8
right_labelLayer
10
14.9240004
20
30.1582442
40
0.0454951
50
240.7315948
51
254.5013453
0
ARC
8
right_labelLayer
10
14.9364143
20
30.2010264
40
0.0900403
50
254.1638215
51
262.2114755
0
ARC
8
right_labelLayer
10
14.9462423
20
30.2696632
40
0.1593763
50
262.0548001
51
267.2087331
0
ARC
8
right_labelLayer
10
14.9509992
20
30.3569557
40
0.2467974
50
267.0925786
51
270.0854413
0
ARC
8
right_labelLayer
10
15.0285671
20
29.8447442
40
0.2654182
50
81.5742263
51
90.3062564
0
ARC
8
right_labelLayer
10
15.0431258
20
29.9396833
40
0.1693713
50
68.3673759
51
81.740078
0
ARC
8
right_labelLayer
10
15.0621407
20
29.9882805
40
0.1171871
50
52.188294
51
68.2500662
0
ARC
8
right_labelLayer
10
15.0754476
20
30.0062117
40
0.0948641
50
8.6203382
51
51.8982671
0
ARC
8
right_labelLayer
10
15.0288141
20
29.9963434
40
0.1424766
50
359.7434853
51
9.7331695
0
ARC
8
right_labelLayer
10
15.0309011
20
29.9939409
40
0.140399
50
340.5268721
51
0.7201588
0
ARC
8
right_labelLayer
10
15.0515287
20
29.9888048
40
0.1192566
50
302.9905048
51
339.5494887
0
ARC
8
right_labelLayer
10
15.0292592
20
30.0172531
40
0.1552762
50
303.1889707
51
304.167179
0
ARC
8
right_labelLayer
10
15.0096939
20
30.0512627
40
0.1944609
50
286.2542353
51
302.5279925
0
ARC
8
right_labelLayer
10
14.9729696
20
30.1723957
40
0.3210341
50
276.4938602
51
286.4954086
0
ARC
8
right_labelLayer
10
14.9500521
20
30.3639664
40
0.5139688
50
269.7546886
51
276.6169773
0
ARC
8
right_labelLayer
10
14.9461416
20
30.2133175
40
0.3633191
50
262.5636043
51
270.2696686
0
ARC
8
right_labelLayer
10
14.9283434
20
30.0814019
40
0.2302103
50
251.2099943
51
262.7067762
0
ARC
8
right_labelLayer
10
14.9027029
20
30.0061423
40
0.1507027
50
235.967152
51
251.2224746
0
ARC
8
right_labelLayer
10
14.875516
20
29.967355
40
0.1033466
50
208.9034361
51
236.4230074
0
ARC
8
right_labelLayer
10
14.8780129
20
29.9663094
40
0.1050488
50
182.2080644
51
207.7458765
0
ARC
8
right_labelLayer
10
14.9098333
20
29.9694821
40
0.1369817
50
179.9784365
51
183.0213601
0
ARC
8
right_labelLayer
10
14.8719857
20
29.9712731
40
0.0991494
50
138.3916769
51
181.0052488
0
ARC
8
right_labelLayer
10
14.8824543
20
29.961866
40
0.1132235
50
113.811933
51
138.3500458
0
ARC
8
right_labelLayer
10
14.9023142
20
29.918983
40
0.1604764
50
102.2867638
51
114.1175426
0
ARC
8
right_labelLayer
10
14.8960753
20
30.1370214
40
0.0672986
50
216.5861161
51
245.4972057
0
ARC
8
right_labelLayer
10
14.9060451
20
30.1454387
40
0.080325
50
215.4677892
51
217.1685684
0
ARC
8
right_labelLayer
10
14.8896631
20
30.1336045
40
0.0601163
50
182.1764743
51
215.3412911
0
ARC
8
right_labelLayer
10
14.9038326
20
30.1351336
40
0.0743404
50
179.980663
51
182.9393705
0
ARC
8
right_labelLayer
10
14.9036432
20
30.1357854
40
0.0741537
50
161.7227897
51
180.484231
0
ARC
8
right_labelLayer
10
14.89549
20
30.1380096
40
0.0657157
50
144.4964021
51
161.334844
0
ARC
8
right_labelLayer
10
14.9172135
20
30.1218199
40
0.0928043
50
132.7249769
51
144.1484219
0
ARC
8
right_labelLayer
10
14.9520608
20
30.0846087
40
0.1437841
50
125.2216557
51
132.8654071
0
ARC
8
right_labelLayer
10
14.9870719
20
30.0359913
40
0.2036941
50
121.2353786
51
125.3796779
0
ARC
8
right_labelLayer
10
14.9249947
20
30.3151641
40
0.113678
50
215.1643284
51
247.4745335
0
ARC
8
right_labelLayer
10
14.9462594
20
30.3323198
40
0.1409536
50
212.4722882
51
215.8870805
0
ARC
8
right_labelLayer
10
14.9406332
20
30.3282955
40
0.1340469
50
183.016004
51
212.3122342
0
ARC
8
right_labelLayer
10
14.9699213
20
30.3315713
40
0.1634761
50
179.974851
51
183.6224355
0
ARC
8
right_labelLayer
10
14.9937894
20
30.3332246
40
0.1873507
50
166.8197673
51
180.4836722
0
ARC
8
right_labelLayer
10
14.9316323
20
30.3489174
40
0.1232578
50
132.3285032
51
167.3342045
0
ARC
8
right_labelLayer
10
14.9399472
20
30.336967
40
0.1377049
50
106.2186604
51
131.5379549
0
ARC
8
right_labelLayer
10
14.9609873
20
30.2688385
40
0.209002
50
93.6331115
51
106.5405603
0
ARC
8
right_labelLayer
10
14.967857
20
30.1917317
40
0.2863961
50
89.9385772
51
94.0272128
0
ARC
8
right_labelLayer
10
14.9689678
20
30.2295902
40
0.2485385
50
82.5852197
51
90.1852968
0
ARC
8
right_labelLayer
10
14.976565
20
30.2883585
40
0.1892811
50
74.0085153
51
82.5699444
0
ARC
8
right_labelLayer
10
14.9004718
20
29.9694297
40
0.0651263
50
179.2211695
51
200.9354436
0
ARC
8
right_labelLayer
10
14.892726
20
29.967636
40
0.0572614
50
202.0286089
51
236.1455112
0
ARC
8
right_labelLayer
10
14.904419
20
29.9824882
40
0.0761229
50
235.0642151
51
238.5031542
0
ARC
8
right_labelLayer
10
14.9179686
20
30.0066956
40
0.1038487
50
239.1066724
51
254.4858816
0
ARC
8
right_labelLayer
10
14.9360579
20
30.06907
40
0.1687904
50
254.2324668
51
263.4939867
0
ARC
8
right_labelLayer
10
14.947422
20
30.1653208
40
0.2657094
50
263.4109803
51
270.1460678
0
LINE
8
right_labelLayer
10
14.9480994
20
29.8996122
11
14.9486328
21
29.8996118
0
ARC
8
right_labelLayer
10
14.9501868
20
30.3355195
40
0.4359104
50
269.7957438
51
275.3991437
0
ARC
8
right_labelLayer
10
14.9664968
20
30.1680643
40
0.267664
50
275.2961422
51
283.3511291
0
ARC
8
right_labelLayer
10
14.9930829
20
30.0585536
40
0.1549749
50
283.1368461
51
295.8572005
0
ARC
8
right_labelLayer
10
15.0127471
20
30.0156106
40
0.1077599
50
296.4066039
51
301.7996573
0
ARC
8
right_labelLayer
10
15.0204981
20
30.0049158
40
0.0945908
50
301.2230197
51
318.6233758
0
ARC
8
right_labelLayer
10
15.0379163
20
29.9888256
40
0.0708869
50
319.0762403
51
1.1407333
0
ARC
8
right_labelLayer
10
15.0210628
20
29.9909317
40
0.087729
50
359.5461178
51
10.9908514
0
ARC
8
right_labelLayer
10
15.054951
20
29.9978258
40
0.053149
50
10.6602225
51
30.9368371
0
ARC
8
right_labelLayer
10
15.0656919
20
30.0037868
40
0.0408737
50
31.5099789
51
58.0776672
0
ARC
8
right_labelLayer
10
15.0556233
20
29.9857576
40
0.0615082
50
58.9974481
51
73.8592983
0
ARC
8
right_labelLayer
10
15.0352709
20
29.9191373
40
0.1311645
50
73.4094213
51
81.5911426
0
ARC
8
right_labelLayer
10
15.0180232
20
29.8075266
40
0.2440986
50
81.4172504
51
86.5759276
0
ARC
8
right_labelLayer
10
15.0074558
20
29.6393789
40
0.4125777
50
86.5056951
51
90.1403316
0
ARC
8
right_labelLayer
10
14.9277836
20
29.9029081
40
0.1490503
50
89.6435056
51
100.0213569
0
ARC
8
right_labelLayer
10
14.9184171
20
29.9538599
40
0.0972467
50
99.8109525
51
116.8226153
0
ARC
8
right_labelLayer
10
14.9092903
20
29.9731086
40
0.0759527
50
117.2304881
51
130.5019828
0
ARC
8
right_labelLayer
10
14.9046034
20
29.9791328
40
0.0683289
50
130.794375
51
169.0413683
0
ARC
8
right_labelLayer
10
14.9390953
20
29.9710077
40
0.1037461
50
168.25714
51
180.382618
0
ARC
8
right_labelLayer
10
14.9970728
20
30.3322365
40
0.1265687
50
179.5613438
51
191.652939
0
ARC
8
right_labelLayer
10
14.9530677
20
30.3227287
40
0.0815512
50
191.3553402
51
213.3663382
0
ARC
8
right_labelLayer
10
14.9425084
20
30.3166335
40
0.0693838
50
213.9584175
51
227.7961697
0
ARC
8
right_labelLayer
10
14.9516953
20
30.3277782
40
0.0838136
50
228.261958
51
254.7342655
0
ARC
8
right_labelLayer
10
14.9634441
20
30.368057
40
0.1257667
50
254.4021616
51
267.4344261
0
ARC
8
right_labelLayer
10
14.9665075
20
30.4091744
40
0.1669845
50
267.0158932
51
270.0322808
0
ARC
8
right_labelLayer
10
14.9685106
20
30.3834467
40
0.1412697
50
269.2257234
51
284.3769018
0
ARC
8
right_labelLayer
10
14.9877651
20
30.3163602
40
0.071531
50
282.7795359
51
346.4829101
0
ARC
8
right_labelLayer
10
14.9301973
20
30.3326661
40
0.1313372
50
345.4364833
51
0.7465788
0
ARC
8
right_labelLayer
10
14.9221098
20
30.3363713
40
0.1394279
50
359.1806324
51
15.0433824
0
ARC
8
right_labelLayer
10
14.9852858
20
30.3548006
40
0.073647
50
13.9537796
51
77.6672066
0
ARC
8
right_labelLayer
10
14.9671596
20
30.289843
40
0.1410294
50
76.1095435
51
90.7028223
0
ARC
8
right_labelLayer
10
14.9644464
20
30.2948057
40
0.1360596
50
89.585915
51
101.3334622
0
ARC
8
right_labelLayer
10
14.9547218
20
30.3411837
40
0.0886759
50
101.0615807
51
121.974171
0
ARC
8
right_labelLayer
10
14.9478883
20
30.3534752
40
0.074634
50
122.5208209
51
134.9967244
0
ARC
8
right_labelLayer
10
14.9507036
20
30.3517882
40
0.0778216
50
135.5842465
51
163.0017191
0
ARC
8
right_labelLayer
10
14.9918077
20
30.3383167
40
0.1210715
50
162.5916696
51
175.7337991
0
ARC
8
right_labelLayer
10
15.0411637
20
30.3334604
40
0.170656
50
175.3405809
51
180.0855844
0
LINE
8
right_labelLayer
10
15.6224609
20
30.0421899
11
15.5576172
21
30.0421899
0
LINE
8
right_labelLayer
10
15.5576172
20
30.0421899
11
15.5576172
21
30.319143
0
LINE
8
right_labelLayer
10
15.3294922
20
30.266018
11
15.3294922
21
30.0421899
0
LINE
8
right_labelLayer
10
15.3294922
20
30.0421899
11
15.2646484
21
30.0421899
0
LINE
8
right_labelLayer
10
15.2646484
20
30.0421899
11
15.2646484
21
30.6500024
0
LINE
8
right_labelLayer
10
15.2646484
20
30.6500024
11
15.3294922
21
30.6500024
0
LINE
8
right_labelLayer
10
15.3294922
20
30.6500024
11
15.3294922
21
30.466018
0
LINE
8
right_labelLayer
10
15.3263672
20
30.4109399
11
15.3302734
21
30.4109399
0
LINE
8
right_labelLayer
10
15.6224609
20
30.3214868
11
15.6224609
21
30.0421899
0
ARC
8
right_labelLayer
10
15.3743143
20
30.3201941
40
0.1833059
50
359.6714543
51
8.6873303
0
ARC
8
right_labelLayer
10
15.4422602
20
30.3309685
40
0.1145127
50
8.4931591
51
22.6582486
0
ARC
8
right_labelLayer
10
15.476775
20
30.345313
40
0.0771359
50
22.7020058
51
42.3418974
0
ARC
8
right_labelLayer
10
15.4806532
20
30.3470565
40
0.0731069
50
43.3791816
51
71.5383713
0
ARC
8
right_labelLayer
10
15.4661473
20
30.3065256
40
0.1161491
50
71.0823297
51
84.3695959
0
ARC
8
right_labelLayer
10
15.4596312
20
30.2511264
40
0.1719236
50
84.0198803
51
90.1504753
0
ARC
8
right_labelLayer
10
15.4577812
20
30.2268425
40
0.1962118
50
89.5916279
51
100.3600126
0
ARC
8
right_labelLayer
10
15.4438885
20
30.2998433
40
0.1219039
50
100.1070314
51
118.0845858
0
ARC
8
right_labelLayer
10
15.4297566
20
30.3275748
40
0.0907867
50
118.4552733
51
139.6703719
0
ARC
8
right_labelLayer
10
15.4439414
20
30.3178796
40
0.1078897
50
140.6205892
51
160.5050277
0
ARC
8
right_labelLayer
10
15.5187424
20
30.2901902
40
0.1876464
50
160.1572084
51
171.5308497
0
ARC
8
right_labelLayer
10
15.6397226
20
30.271024
40
0.3101322
50
171.320315
51
178.3409221
0
ARC
8
right_labelLayer
10
15.7482238
20
30.2661858
40
0.4187315
50
178.1090056
51
180.0229505
0
ARC
8
right_labelLayer
10
14.7461732
20
30.4653178
40
0.5833195
50
357.8679116
51
0.068783
0
ARC
8
right_labelLayer
10
14.9441797
20
30.4577727
40
0.3851692
50
354.9833859
51
357.8936955
0
ARC
8
right_labelLayer
10
15.0750138
20
30.4463882
40
0.2538408
50
351.9725463
51
354.9608596
0
ARC
8
right_labelLayer
10
15.4401078
20
30.3422346
40
0.1295531
50
119.8315752
51
147.9725456
0
ARC
8
right_labelLayer
10
15.4557931
20
30.3181389
40
0.1582669
50
116.6655984
51
120.4181949
0
ARC
8
right_labelLayer
10
15.4587252
20
30.3104387
40
0.1664661
50
96.6654054
51
116.3780537
0
ARC
8
right_labelLayer
10
15.4650358
20
30.2668874
40
0.2104591
50
89.8927633
51
96.9956058
0
ARC
8
right_labelLayer
10
15.4670538
20
30.2142733
40
0.2630778
50
80.6862105
51
90.3537171
0
ARC
8
right_labelLayer
10
15.483435
20
30.3106218
40
0.1653495
50
65.602341
51
80.8844415
0
ARC
8
right_labelLayer
10
15.5031059
20
30.354926
40
0.1168768
50
46.7397996
51
65.41296
0
ARC
8
right_labelLayer
10
15.504442
20
30.3591458
40
0.1129045
50
19.2204569
51
45.765946
0
ARC
8
right_labelLayer
10
15.4393503
20
30.3350147
40
0.182317
50
6.4730214
51
19.6471054
0
ARC
8
right_labelLayer
10
15.3420303
20
30.3224909
40
0.2804324
50
359.7948473
51
6.773889
0
LINE
8
right_labelLayer
10
15.9525391
20
30.0957055
11
15.9525391
21
30.0460962
0
LINE
8
right_labelLayer
10
15.7603516
20
30.1652368
11
15.7603516
21
30.4199243
0
LINE
8
right_labelLayer
10
15.7603516
20
30.4199243
11
15.6990234
21
30.4199243
0
LINE
8
right_labelLayer
10
15.6990234
20
30.4199243
11
15.6990234
21
30.4511743
0
LINE
8
right_labelLayer
10
15.6990234
20
30.4511743
11
15.7603516
21
30.4781274
0
LINE
8
right_labelLayer
10
15.7603516
20
30.4781274
11
15.7876953
21
30.5695337
0
LINE
8
right_labelLayer
10
15.7876953
20
30.5695337
11
15.8251953
21
30.5695337
0
LINE
8
right_labelLayer
10
15.8251953
20
30.5695337
11
15.8251953
21
30.4703149
0
LINE
8
right_labelLayer
10
15.8251953
20
30.4703149
11
15.9494141
21
30.4703149
0
LINE
8
right_labelLayer
10
15.9494141
20
30.4703149
11
15.9494141
21
30.4199243
0
LINE
8
right_labelLayer
10
15.9494141
20
30.4199243
11
15.8251953
21
30.4199243
0
LINE
8
right_labelLayer
10
15.8251953
20
30.4199243
11
15.8251953
21
30.1679712
0
ARC
8
right_labelLayer
10
15.8943913
20
30.3008486
40
0.2129561
50
269.879997
51
278.3024663
0
ARC
8
right_labelLayer
10
15.8965743
20
30.2833067
40
0.1952829
50
278.4118817
51
279.0074698
0
ARC
8
right_labelLayer
10
15.8725718
20
30.4366465
40
0.3504897
50
278.958281
51
280.5110044
0
ARC
8
right_labelLayer
10
15.8953457
20
30.3144863
40
0.2262248
50
280.4839747
51
282.6285311
0
ARC
8
right_labelLayer
10
15.9152654
20
30.2260268
40
0.1355505
50
282.5871425
51
285.5787887
0
ARC
8
right_labelLayer
10
15.9255137
20
30.1883169
40
0.0964739
50
285.7306322
51
286.2680348
0
ARC
8
right_labelLayer
10
15.9252754
20
30.1037591
40
0.0637834
50
287.9895683
51
295.3052585
0
ARC
8
right_labelLayer
10
15.9098774
20
30.1503524
40
0.1128546
50
283.3086929
51
288.119149
0
ARC
8
right_labelLayer
10
15.89366
20
30.2180079
40
0.1824264
50
280.0059493
51
283.3739479
0
ARC
8
right_labelLayer
10
15.882746
20
30.2771703
40
0.2425858
50
279.1888755
51
280.1165972
0
ARC
8
right_labelLayer
10
15.8760981
20
30.3150398
40
0.2810312
50
275.5257553
51
279.2939123
0
ARC
8
right_labelLayer
10
15.8836194
20
30.2364496
40
0.2020821
50
270.8925541
51
275.5488149
0
ARC
8
right_labelLayer
10
15.8845763
20
30.1987871
40
0.1644097
50
269.9979137
51
270.7635923
0
ARC
8
right_labelLayer
10
15.8819531
20
30.203718
40
0.1693608
50
253.7848156
51
270.8854429
0
ARC
8
right_labelLayer
10
15.8618887
20
30.1352905
40
0.0980525
50
190.3817828
51
253.8772612
0
ARC
8
right_labelLayer
10
15.9641545
20
30.1629419
40
0.2038158
50
179.354861
51
192.8478523
0
ARC
8
right_labelLayer
10
15.9557708
20
30.1671556
40
0.1305781
50
179.642129
51
189.7507278
0
ARC
8
right_labelLayer
10
15.909673
20
30.158933
40
0.0837542
50
189.5478405
51
205.7869718
0
ARC
8
right_labelLayer
10
15.8907262
20
30.1501962
40
0.0628944
50
206.1291188
51
221.4087188
0
ARC
8
right_labelLayer
10
15.8886045
20
30.1485863
40
0.0602386
50
221.595082
51
262.3504407
0
ARC
8
right_labelLayer
10
15.8936548
20
30.1745542
40
0.0866616
50
261.3264892
51
270.1920986
0
LINE
8
bottom_outsideCutPath
10
17.368
20
8.132
11
17.368
21
7.17925
0
LINE
8
bottom_outsideCutPath
10
17.368
20
7.17925
11
17.25
21
7.17925
0
LINE
8
bottom_outsideCutPath
10
17.25
20
7.17925
11
17.25
21
5.32075
0
LINE
8
bottom_outsideCutPath
10
17.25
20
5.32075
11
17.368
21
5.32075
0
LINE
8
bottom_outsideCutPath
10
17.368
20
5.32075
11
17.368
21
4.368
0
LINE
8
bottom_outsideCutPath
10
17.368
20
4.368
11
19.10375
21
4.368
0
LINE
8
bottom_outsideCutPath
10
19.10375
20
4.368
11
19.10375
21
4.25
0
LINE
8
bottom_outsideCutPath
10
19.10375
20
4.25
11
20.96225
21
4.25
0
LINE
8
bottom_outsideCutPath
10
20.96225
20
4.25
11
20.96225
21
4.368
0
LINE
8
bottom_outsideCutPath
10
20.96225
20
4.368
11
22.82075
21
4.368
0
LINE
8
bottom_outsideCutPath
10
22.82075
20
4.368
11
22.82075
21
4.25
0
LINE
8
bottom_outsideCutPath
10
22.82075
20
4.25
11
24.67925
21
4.25
0
LINE
8
bottom_outsideCutPath
10
24.67925
20
4.25
11
24.67925
21
4.368
0
LINE
8
bottom_outsideCutPath
10
24.67925
20
4.368
11
26.53775
21
4.368
0
LINE
8
bottom_outsideCutPath
10
26.53775
20
4.368
11
26.53775
21
4.25
0
LINE
8
bottom_outsideCutPath
10
26.53775
20
4.25
11
28.39625
21
4.25
0
LINE
8
bottom_outsideCutPath
10
28.39625
20
4.25
11
28.39625
21
4.368
0
LINE
8
bottom_outsideCutPath
10
28.39625
20
4.368
11
30.132
21
4.368
0
LINE
8
bottom_outsideCutPath
10
30.132
20
4.368
11
30.132
21
5.32075
0
LINE
8
bottom_outsideCutPath
10
30.132
20
5.32075
11
30.25
21
5.32075
0
LINE
8
bottom_outsideCutPath
10
30.25
20
5.32075
11
30.25
21
7.17925
0
LINE
8
bottom_outsideCutPath
10
30.25
20
7.17925
11
30.132
21
7.17925
0
LINE
8
bottom_outsideCutPath
10
30.132
20
7.17925
11
30.132
21
8.132
0
LINE
8
bottom_outsideCutPath
10
30.132
20
8.132
11
28.39625
21
8.132
0
LINE
8
bottom_outsideCutPath
10
28.39625
20
8.132
11
28.39625
21
8.25
0
LINE
8
bottom_outsideCutPath
10
28.39625
20
8.25
11
26.53775
21
8.25
0
LINE
8
bottom_outsideCutPath
10
26.53775
20
8.25
11
26.53775
21
8.132
0
LINE
8
bottom_outsideCutPath
10
26.53775
20
8.132
11
24.67925
21
8.132
0
LINE
8
bottom_outsideCutPath
10
24.67925
20
8.132
11
24.67925
21
8.25
0
LINE
8
bottom_outsideCutPath
10
24.67925
20
8.25
11
22.82075
21
8.25
0
LINE
8
bottom_outsideCutPath
10
22.82075
20
8.25
11
22.82075
21
8.132
0
LINE
8
bottom_outsideCutPath
10
22.82075
20
8.132
11
20.96225
21
8.132
0
LINE
8
bottom_outsideCutPath
10
20.96225
20
8.132
11
20.96225
21
8.25
0
LINE
8
bottom_outsideCutPath
10
20.96225
20
8.25
11
19.10375
21
8.25
0
LINE
8
bottom_outsideCutPath
10
19.10375
20
8.25
11
19.10375
21
8.132
0
LINE
8
bottom_outsideCutPath
10
19.10375
20
8.132
11
17.368
21
8.132
0
LINE
8
bottom_labelLayer
10
22.4988263
20
6.0050882
11
22.4941388
21
6.0050882
0
LINE
8
bottom_labelLayer
10
22.4941388
20
6.0050882
11
22.4804669
21
5.9500101
0
LINE
8
bottom_labelLayer
10
22.4804669
20
5.9500101
11
22.4339825
21
5.9500101
0
LINE
8
bottom_labelLayer
10
22.4339825
20
5.9500101
11
22.4339825
21
6.5578226
0
LINE
8
bottom_labelLayer
10
22.4339825
20
6.5578226
11
22.4988263
21
6.5578226
0
LINE
8
bottom_labelLayer
10
22.4988263
20
6.5578226
11
22.4988263
21
6.4101664
0
LINE
8
bottom_labelLayer
10
22.4957013
20
6.3211039
11
22.4988263
21
6.3211039
0
ARC
8
bottom_labelLayer
10
22.6351459
20
6.1869891
40
0.1981868
50
74.2392945
51
90.5621875
0
ARC
8
bottom_labelLayer
10
22.6482508
20
6.235065
40
0.1483596
50
38.5633265
51
74.0670028
0
ARC
8
bottom_labelLayer
10
22.6145281
20
6.2088436
40
0.1910744
50
16.4709663
51
38.4076954
0
ARC
8
bottom_labelLayer
10
22.5173806
20
6.1783803
40
0.2928773
50
5.1336614
51
16.7974776
0
ARC
8
bottom_labelLayer
10
22.3946745
20
6.165348
40
0.4162621
50
359.8782133
51
5.4089932
0
ARC
8
bottom_labelLayer
10
22.4307657
20
6.1622191
40
0.3801766
50
350.6560109
51
0.3382065
0
ARC
8
bottom_labelLayer
10
22.5632919
20
6.1396756
40
0.2457497
50
335.830575
51
350.8255813
0
ARC
8
bottom_labelLayer
10
22.6215898
20
6.1145135
40
0.1822623
50
321.3163636
51
335.5435677
0
ARC
8
bottom_labelLayer
10
22.6438824
20
6.0963498
40
0.1535079
50
274.0639876
51
321.4079794
0
ARC
8
bottom_labelLayer
10
22.6334964
20
6.1621482
40
0.2199509
50
269.9231219
51
275.5481192
0
ARC
8
bottom_labelLayer
10
22.6321077
20
6.1388791
40
0.1966845
50
255.7755261
51
270.3185795
0
ARC
8
bottom_labelLayer
10
22.6265008
20
6.1139607
40
0.1711537
50
245.980847
51
255.5451934
0
ARC
8
bottom_labelLayer
10
22.615623
20
6.0886608
40
0.1436172
50
215.5851757
51
245.8363402
0
ARC
8
bottom_labelLayer
10
21.1468937
20
6.4090178
40
1.3519331
50
358.1125465
51
0.0486757
0
ARC
8
bottom_labelLayer
10
21.5233309
20
6.3963802
40
0.9752837
50
355.7237176
51
358.1261928
0
ARC
8
bottom_labelLayer
10
21.6835196
20
6.3853678
40
0.8147204
50
355.4758903
51
355.6560018
0
ARC
8
bottom_labelLayer
10
22.6197566
20
6.236776
40
0.1474291
50
95.1833717
51
145.1109463
0
ARC
8
bottom_labelLayer
10
22.6327156
20
6.1636962
40
0.2214706
50
89.87435
51
96.8143894
0
ARC
8
bottom_labelLayer
10
22.6224687
20
6.1486609
40
0.1822136
50
89.5731237
51
100.7325835
0
ARC
8
bottom_labelLayer
10
22.6089797
20
6.2168092
40
0.1127469
50
100.4469439
51
119.6699918
0
ARC
8
bottom_labelLayer
10
22.596472
20
6.2401946
40
0.086239
50
120.1403454
51
142.4245926
0
ARC
8
bottom_labelLayer
10
22.6171686
20
6.2265043
40
0.1110046
50
143.3385633
51
161.2557465
0
ARC
8
bottom_labelLayer
10
22.7037182
20
6.1957788
40
0.2028414
50
160.893154
51
171.2332456
0
ARC
8
bottom_labelLayer
10
22.8481758
20
6.1724746
40
0.3491648
50
171.066718
51
177.845551
0
ARC
8
bottom_labelLayer
10
22.9984852
20
6.1648294
40
0.4996592
50
177.617462
51
180.0419915
0
ARC
8
bottom_labelLayer
10
22.9276022
20
6.1627908
40
0.4287792
50
179.776523
51
185.7072608
0
ARC
8
bottom_labelLayer
10
22.7585559
20
6.1453773
40
0.2588397
50
185.5929881
51
194.2045983
0
ARC
8
bottom_labelLayer
10
22.6502447
20
6.1172687
40
0.1469441
50
193.942861
51
208.021548
0
ARC
8
bottom_labelLayer
10
22.606417
20
6.0949714
40
0.097783
50
208.5530178
51
217.5614643
0
ARC
8
bottom_labelLayer
10
22.6028619
20
6.0934957
40
0.0940706
50
218.1689967
51
253.8047235
0
ARC
8
bottom_labelLayer
10
22.620312
20
6.1473009
40
0.1506178
50
253.1387203
51
266.8478494
0
ARC
8
bottom_labelLayer
10
22.6252061
20
6.2050321
40
0.2085378
50
266.3774293
51
270.0502001
0
ARC
8
bottom_labelLayer
10
22.626772
20
6.1257555
40
0.1292684
50
269.3869182
51
285.8627073
0
ARC
8
bottom_labelLayer
10
22.6363756
20
6.0910437
40
0.0932536
50
286.0162809
51
326.84976
0
ARC
8
bottom_labelLayer
10
22.5900259
20
6.1217496
40
0.148851
50
326.7101975
51
343.6661388
0
ARC
8
bottom_labelLayer
10
22.5032614
20
6.1482637
40
0.2395725
50
343.4167546
51
353.6367811
0
ARC
8
bottom_labelLayer
10
22.3721979
20
6.1638143
40
0.371553
50
353.4935336
51
0.2205464
0
ARC
8
bottom_labelLayer
10
22.3606126
20
6.1667936
40
0.3831387
50
359.7683457
51
6.3091706
0
ARC
8
bottom_labelLayer
10
22.5049544
20
6.1833542
40
0.237852
50
6.1650784
51
16.0397935
0
ARC
8
bottom_labelLayer
10
22.5979223
20
6.2107533
40
0.1409344
50
15.7775879
51
32.0155698
0
ARC
8
bottom_labelLayer
10
22.6271615
20
6.2275269
40
0.1072574
50
32.698695
51
35.5277214
0
ARC
8
bottom_labelLayer
10
22.6375066
20
6.234887
40
0.0945613
50
35.5408321
51
79.8012542
0
ARC
8
bottom_labelLayer
10
22.6248078
20
6.1809012
40
0.1499715
50
78.6782316
51
90.3749716
0
ARC
8
bottom_labelLayer
10
22.9588068
20
6.1622051
40
0.334949
50
349.1763443
51
0.3862683
0
ARC
8
bottom_labelLayer
10
23.0715793
20
6.139725
40
0.219963
50
330.2506036
51
349.4115498
0
ARC
8
bottom_labelLayer
10
23.1062752
20
6.1216923
40
0.1808988
50
318.1444194
51
329.7564337
0
ARC
8
bottom_labelLayer
10
23.1125467
20
6.1166677
40
0.1728754
50
278.8960073
51
317.9978505
0
ARC
8
bottom_labelLayer
10
23.0964081
20
6.1939843
40
0.2517892
50
269.7502702
51
279.8035482
0
ARC
8
bottom_labelLayer
10
23.0937913
20
6.1504249
40
0.2082329
50
253.543622
51
270.4180554
0
ARC
8
bottom_labelLayer
10
23.0868568
20
6.1236061
40
0.1805508
50
238.811443
51
253.2431052
0
ARC
8
bottom_labelLayer
10
23.0846228
20
6.1191121
40
0.1755499
50
207.7947236
51
238.675642
0
ARC
8
bottom_labelLayer
10
23.1168055
20
6.1388157
40
0.2132212
50
205.6570391
51
208.4459165
0
ARC
8
bottom_labelLayer
10
23.1414506
20
6.149075
40
0.2398827
50
188.9104529
51
205.3171201
0
ARC
8
bottom_labelLayer
10
23.2247627
20
6.1631863
40
0.3243765
50
179.7744522
51
189.0935728
0
ARC
8
bottom_labelLayer
10
23.2370666
20
6.1667436
40
0.3366855
50
169.244328
51
180.3880586
0
ARC
8
bottom_labelLayer
10
23.1227284
20
6.1893443
40
0.2201399
50
150.7111349
51
169.4696653
0
ARC
8
bottom_labelLayer
10
23.0862342
20
6.2080853
40
0.179149
50
138.1762471
51
150.2287576
0
ARC
8
bottom_labelLayer
10
23.0801591
20
6.2127466
40
0.1715143
50
99.1759624
51
137.9833325
0
ARC
8
bottom_labelLayer
10
23.0968699
20
6.1341033
40
0.2518471
50
89.7326528
51
100.0759795
0
ARC
8
bottom_labelLayer
10
23.1002092
20
6.1680671
40
0.2178912
50
73.5221181
51
90.5690812
0
ARC
8
bottom_labelLayer
10
23.1129871
20
6.2144918
40
0.1697515
50
41.1447204
51
73.2132889
0
ARC
8
bottom_labelLayer
10
23.0885961
20
6.193528
40
0.2019127
50
13.5015179
51
41.0704863
0
ARC
8
bottom_labelLayer
10
22.9943491
20
6.1688663
40
0.2993192
50
1.1278154
51
13.8797899
0
ARC
8
bottom_labelLayer
10
22.9137132
20
6.1645244
40
0.3800349
50
359.9907787
51
1.5430191
0
ARC
8
bottom_labelLayer
10
23.2959329
20
6.1627781
40
0.3283609
50
179.7059533
51
187.916232
0
ARC
8
bottom_labelLayer
10
23.1755114
20
6.1454792
40
0.2067053
50
187.7640742
51
200.0974121
0
ARC
8
bottom_labelLayer
10
23.1091616
20
6.1211708
40
0.1360427
50
200.085069
51
216.9130132
0
ARC
8
bottom_labelLayer
10
23.0849299
20
6.1038684
40
0.106279
50
217.3009009
51
261.7098175
0
ARC
8
bottom_labelLayer
10
23.096177
20
6.1575397
40
0.1610467
50
260.503336
51
270.2476757
0
ARC
8
bottom_labelLayer
10
23.0983238
20
6.147105
40
0.1506175
50
269.4481605
51
284.7253533
0
ARC
8
bottom_labelLayer
10
23.1102476
20
6.1028822
40
0.1048167
50
284.5660678
51
322.63358
0
ARC
8
bottom_labelLayer
10
23.0823735
20
6.1230217
40
0.1391961
50
323.0085069
51
342.6391979
0
ARC
8
bottom_labelLayer
10
23.002636
20
6.1490826
40
0.2230799
50
342.3615719
51
353.7538372
0
ARC
8
bottom_labelLayer
10
22.8850138
20
6.163261
40
0.3415489
50
353.5362747
51
0.2016839
0
ARC
8
bottom_labelLayer
10
22.9030335
20
6.1661159
40
0.3235314
50
359.7073289
51
7.8973263
0
ARC
8
bottom_labelLayer
10
23.0215139
20
6.1831011
40
0.2038416
50
7.7440828
51
20.0691926
0
ARC
8
bottom_labelLayer
10
23.0875342
20
6.2073277
40
0.1335167
50
20.0261614
51
37.4346543
0
ARC
8
bottom_labelLayer
10
23.1094467
20
6.2228751
40
0.1066711
50
37.9579729
51
80.4003659
0
ARC
8
bottom_labelLayer
10
23.0969992
20
6.1673368
40
0.1635352
50
79.3451919
51
90.3178771
0
ARC
8
bottom_labelLayer
10
23.094693
20
6.1765507
40
0.1543251
50
89.4806306
51
103.8801225
0
ARC
8
bottom_labelLayer
10
23.0817256
20
6.2259337
40
0.1032759
50
103.4683454
51
142.3119643
0
ARC
8
bottom_labelLayer
10
23.1069357
20
6.2082041
40
0.1340722
50
142.902633
51
162.3748601
0
ARC
8
bottom_labelLayer
10
23.1863689
20
6.1817338
40
0.2177947
50
162.0654193
51
173.1675171
0
ARC
8
bottom_labelLayer
10
23.3102548
20
6.1659351
40
0.3426817
50
173.0089817
51
180.2460994
0
LINE
8
bottom_labelLayer
10
23.604295
20
6.0035257
11
23.604295
21
5.9539164
0
LINE
8
bottom_labelLayer
10
23.4121075
20
6.073057
11
23.4121075
21
6.3277445
0
LINE
8
bottom_labelLayer
10
23.4121075
20
6.3277445
11
23.3507794
21
6.3277445
0
LINE
8
bottom_labelLayer
10
23.3507794
20
6.3277445
11
23.3507794
21
6.3589945
0
LINE
8
bottom_labelLayer
10
23.3507794
20
6.3589945
11
23.4121075
21
6.3859476
0
LINE
8
bottom_labelLayer
10
23.4121075
20
6.3859476
11
23.4394513
21
6.4773539
0
LINE
8
bottom_labelLayer
10
23.4394513
20
6.4773539
11
23.4769513
21
6.4773539
0
LINE
8
bottom_labelLayer
10
23.4769513
20
6.4773539
11
23.4769513
21
6.3781351
0
LINE
8
bottom_labelLayer
10
23.4769513
20
6.3781351
11
23.60117
21
6.3781351
0
LINE
8
bottom_labelLayer
10
23.60117
20
6.3781351
11
23.60117
21
6.3277445
0
LINE
8
bottom_labelLayer
10
23.60117
20
6.3277445
11
23.4769513
21
6.3277445
0
LINE
8
bottom_labelLayer
10
23.4769513
20
6.3277445
11
23.4769513
21
6.0757914
0
ARC
8
bottom_labelLayer
10
23.5461473
20
6.2086688
40
0.2129561
50
269.879997
51
278.3024663
0
ARC
8
bottom_labelLayer
10
23.5483303
20
6.1911269
40
0.1952829
50
278.4118817
51
279.0074698
0
ARC
8
bottom_labelLayer
10
23.5243278
20
6.3444667
40
0.3504897
50
278.958281
51
280.5110044
0
ARC
8
bottom_labelLayer
10
23.5471017
20
6.2223065
40
0.2262248
50
280.4839747
51
282.6285311
0
ARC
8
bottom_labelLayer
10
23.5670213
20
6.133847
40
0.1355505
50
282.5871425
51
285.5787887
0
ARC
8
bottom_labelLayer
10
23.5772696
20
6.0961371
40
0.0964739
50
285.7306322
51
286.2680348
0
ARC
8
bottom_labelLayer
10
23.5770314
20
6.0115793
40
0.0637834
50
287.9895683
51
295.3052585
0
ARC
8
bottom_labelLayer
10
23.5616334
20
6.0581726
40
0.1128546
50
283.3086929
51
288.119149
0
ARC
8
bottom_labelLayer
10
23.5454159
20
6.1258281
40
0.1824264
50
280.0059493
51
283.3739479
0
ARC
8
bottom_labelLayer
10
23.534502
20
6.1849905
40
0.2425858
50
279.1888755
51
280.1165972
0
ARC
8
bottom_labelLayer
10
23.5278541
20
6.22286
40
0.2810312
50
275.5257553
51
279.2939123
0
ARC
8
bottom_labelLayer
10
23.5353754
20
6.1442698
40
0.2020821
50
270.8925541
51
275.5488149
0
ARC
8
bottom_labelLayer
10
23.5363323
20
6.1066073
40
0.1644097
50
269.9979137
51
270.7635923
0
ARC
8
bottom_labelLayer
10
23.5337091
20
6.1115382
40
0.1693608
50
253.7848156
51
270.8854429
0
ARC
8
bottom_labelLayer
10
23.5136447
20
6.0431107
40
0.0980525
50
190.3817828
51
253.8772612
0
ARC
8
bottom_labelLayer
10
23.6159105
20
6.0707621
40
0.2038158
50
179.354861
51
192.8478523
0
ARC
8
bottom_labelLayer
10
23.6075268
20
6.0749758
40
0.1305781
50
179.642129
51
189.7507278
0
ARC
8
bottom_labelLayer
10
23.5614289
20
6.0667532
40
0.0837542
50
189.5478405
51
205.7869718
0
ARC
8
bottom_labelLayer
10
23.5424821
20
6.0580164
40
0.0628944
50
206.1291188
51
221.4087188
0
ARC
8
bottom_labelLayer
10
23.5403604
20
6.0564065
40
0.0602386
50
221.595082
51
262.3504407
0
ARC
8
bottom_labelLayer
10
23.5454107
20
6.0823744
40
0.0866616
50
261.3264892
51
270.1920986
0
LINE
8
bottom_labelLayer
10
23.8867169
20
6.0035257
11
23.8867169
21
5.9539164
0
LINE
8
bottom_labelLayer
10
23.6945294
20
6.073057
11
23.6945294
21
6.3277445
0
LINE
8
bottom_labelLayer
10
23.6945294
20
6.3277445
11
23.6332013
21
6.3277445
0
LINE
8
bottom_labelLayer
10
23.6332013
20
6.3277445
11
23.6332013
21
6.3589945
0
LINE
8
bottom_labelLayer
10
23.6332013
20
6.3589945
11
23.6945294
21
6.3859476
0
LINE
8
bottom_labelLayer
10
23.6945294
20
6.3859476
11
23.7218732
21
6.4773539
0
LINE
8
bottom_labelLayer
10
23.7218732
20
6.4773539
11
23.7593732
21
6.4773539
0
LINE
8
bottom_labelLayer
10
23.7593732
20
6.4773539
11
23.7593732
21
6.3781351
0
LINE
8
bottom_labelLayer
10
23.7593732
20
6.3781351
11
23.8835919
21
6.3781351
0
LINE
8
bottom_labelLayer
10
23.8835919
20
6.3781351
11
23.8835919
21
6.3277445
0
LINE
8
bottom_labelLayer
10
23.8835919
20
6.3277445
11
23.7593732
21
6.3277445
0
LINE
8
bottom_labelLayer
10
23.7593732
20
6.3277445
11
23.7593732
21
6.0757914
0
ARC
8
bottom_labelLayer
10
23.8285692
20
6.2086688
40
0.2129561
50
269.879997
51
278.3024663
0
ARC
8
bottom_labelLayer
10
23.8307522
20
6.1911269
40
0.1952829
50
278.4118817
51
279.0074698
0
ARC
8
bottom_labelLayer
10
23.8067497
20
6.3444667
40
0.3504897
50
278.958281
51
280.5110044
0
ARC
8
bottom_labelLayer
10
23.8295236
20
6.2223065
40
0.2262248
50
280.4839747
51
282.6285311
0
ARC
8
bottom_labelLayer
10
23.8494432
20
6.133847
40
0.1355505
50
282.5871425
51
285.5787887
0
ARC
8
bottom_labelLayer
10
23.8596915
20
6.0961371
40
0.0964739
50
285.7306322
51
286.2680348
0
ARC
8
bottom_labelLayer
10
23.8594533
20
6.0115793
40
0.0637834
50
287.9895683
51
295.3052585
0
ARC
8
bottom_labelLayer
10
23.8440552
20
6.0581726
40
0.1128546
50
283.3086929
51
288.119149
0
ARC
8
bottom_labelLayer
10
23.8278378
20
6.1258281
40
0.1824264
50
280.0059493
51
283.3739479
0
ARC
8
bottom_labelLayer
10
23.8169238
20
6.1849905
40
0.2425858
50
279.1888755
51
280.1165972
0
ARC
8
bottom_labelLayer
10
23.810276
20
6.22286
40
0.2810312
50
275.5257553
51
279.2939123
0
ARC
8
bottom_labelLayer
10
23.8177973
20
6.1442698
40
0.2020821
50
270.8925541
51
275.5488149
0
ARC
8
bottom_labelLayer
10
23.8187541
20
6.1066073
40
0.1644097
50
269.9979137
51
270.7635923
0
ARC
8
bottom_labelLayer
10
23.816131
20
6.1115382
40
0.1693608
50
253.7848156
51
270.8854429
0
ARC
8
bottom_labelLayer
10
23.7960665
20
6.0431107
40
0.0980525
50
190.3817828
51
253.8772612
0
ARC
8
bottom_labelLayer
10
23.8983324
20
6.0707621
40
0.2038158
50
179.354861
51
192.8478523
0
ARC
8
bottom_labelLayer
10
23.8899487
20
6.0749758
40
0.1305781
50
179.642129
51
189.7507278
0
ARC
8
bottom_labelLayer
10
23.8438508
20
6.0667532
40
0.0837542
50
189.5478405
51
205.7869718
0
ARC
8
bottom_labelLayer
10
23.824904
20
6.0580164
40
0.0628944
50
206.1291188
51
221.4087188
0
ARC
8
bottom_labelLayer
10
23.8227823
20
6.0564065
40
0.0602386
50
221.595082
51
262.3504407
0
ARC
8
bottom_labelLayer
10
23.8278326
20
6.0823744
40
0.0866616
50
261.3264892
51
270.1920986
0
ARC
8
bottom_labelLayer
10
24.0068537
20
6.1622051
40
0.334949
50
349.1763443
51
0.3862683
0
ARC
8
bottom_labelLayer
10
24.1196262
20
6.139725
40
0.219963
50
330.2506036
51
349.4115498
0
ARC
8
bottom_labelLayer
10
24.1543221
20
6.1216923
40
0.1808988
50
318.1444194
51
329.7564337
0
ARC
8
bottom_labelLayer
10
24.1605935
20
6.1166677
40
0.1728754
50
278.8960073
51
317.9978505
0
ARC
8
bottom_labelLayer
10
24.144455
20
6.1939843
40
0.2517892
50
269.7502702
51
279.8035482
0
ARC
8
bottom_labelLayer
10
24.1418382
20
6.1504249
40
0.2082329
50
253.543622
51
270.4180554
0
ARC
8
bottom_labelLayer
10
24.1349037
20
6.1236061
40
0.1805508
50
238.811443
51
253.2431052
0
ARC
8
bottom_labelLayer
10
24.1326697
20
6.1191121
40
0.1755499
50
207.7947236
51
238.675642
0
ARC
8
bottom_labelLayer
10
24.1648523
20
6.1388157
40
0.2132212
50
205.6570391
51
208.4459165
0
ARC
8
bottom_labelLayer
10
24.1894975
20
6.149075
40
0.2398827
50
188.9104529
51
205.3171201
0
ARC
8
bottom_labelLayer
10
24.2728096
20
6.1631863
40
0.3243765
50
179.7744522
51
189.0935728
0
ARC
8
bottom_labelLayer
10
24.2851135
20
6.1667436
40
0.3366855
50
169.244328
51
180.3880586
0
ARC
8
bottom_labelLayer
10
24.1707753
20
6.1893443
40
0.2201399
50
150.7111349
51
169.4696653
0
ARC
8
bottom_labelLayer
10
24.1342811
20
6.2080853
40
0.179149
50
138.1762471
51
150.2287576
0
ARC
8
bottom_labelLayer
10
24.128206
20
6.2127466
40
0.1715143
50
99.1759624
51
137.9833325
0
ARC
8
bottom_labelLayer
10
24.1449168
20
6.1341033
40
0.2518471
50
89.7326528
51
100.0759795
0
ARC
8
bottom_labelLayer
10
24.148256
20
6.1680671
40
0.2178912
50
73.5221181
51
90.5690812
0
ARC
8
bottom_labelLayer
10
24.161034
20
6.2144918
40
0.1697515
50
41.1447204
51
73.2132889
0
ARC
8
bottom_labelLayer
10
24.136643
20
6.193528
40
0.2019127
50
13.5015179
51
41.0704863
0
ARC
8
bottom_labelLayer
10
24.042396
20
6.1688663
40
0.2993192
50
1.1278154
51
13.8797899
0
ARC
8
bottom_labelLayer
10
23.9617601
20
6.1645244
40
0.3800349
50
359.9907787
51
1.5430191
0
ARC
8
bottom_labelLayer
10
24.3439798
20
6.1627781
40
0.3283609
50
179.7059533
51
187.916232
0
ARC
8
bottom_labelLayer
10
24.2235583
20
6.1454792
40
0.2067053
50
187.7640742
51
200.0974121
0
ARC
8
bottom_labelLayer
10
24.1572085
20
6.1211708
40
0.1360427
50
200.085069
51
216.9130132
0
ARC
8
bottom_labelLayer
10
24.1329767
20
6.1038684
40
0.106279
50
217.3009009
51
261.7098175
0
ARC
8
bottom_labelLayer
10
24.1442239
20
6.1575397
40
0.1610467
50
260.503336
51
270.2476757
0
ARC
8
bottom_labelLayer
10
24.1463707
20
6.147105
40
0.1506175
50
269.4481605
51
284.7253533
0
ARC
8
bottom_labelLayer
10
24.1582945
20
6.1028822
40
0.1048167
50
284.5660678
51
322.63358
0
ARC
8
bottom_labelLayer
10
24.1304204
20
6.1230217
40
0.1391961
50
323.0085069
51
342.6391979
0
ARC
8
bottom_labelLayer
10
24.0506828
20
6.1490826
40
0.2230799
50
342.3615719
51
353.7538372
0
ARC
8
bottom_labelLayer
10
23.9330606
20
6.163261
40
0.3415489
50
353.5362747
51
0.2016839
0
ARC
8
bottom_labelLayer
10
23.9510803
20
6.1661159
40
0.3235314
50
359.7073289
51
7.8973263
0
ARC
8
bottom_labelLayer
10
24.0695608
20
6.1831011
40
0.2038416
50
7.7440828
51
20.0691926
0
ARC
8
bottom_labelLayer
10
24.1355811
20
6.2073277
40
0.1335167
50
20.0261614
51
37.4346543
0
ARC
8
bottom_labelLayer
10
24.1574936
20
6.2228751
40
0.1066711
50
37.9579729
51
80.4003659
0
ARC
8
bottom_labelLayer
10
24.1450461
20
6.1673368
40
0.1635352
50
79.3451919
51
90.3178771
0
ARC
8
bottom_labelLayer
10
24.1427399
20
6.1765507
40
0.1543251
50
89.4806306
51
103.8801225
0
ARC
8
bottom_labelLayer
10
24.1297725
20
6.2259337
40
0.1032759
50
103.4683454
51
142.3119643
0
ARC
8
bottom_labelLayer
10
24.1549826
20
6.2082041
40
0.1340722
50
142.902633
51
162.3748601
0
ARC
8
bottom_labelLayer
10
24.2344158
20
6.1817338
40
0.2177947
50
162.0654193
51
173.1675171
0
ARC
8
bottom_labelLayer
10
24.3583017
20
6.1659351
40
0.3426817
50
173.0089817
51
180.2460994
0
LINE
8
bottom_labelLayer
10
25.0660138
20
5.9500101
11
25.00117
21
5.9500101
0
LINE
8
bottom_labelLayer
10
25.00117
20
5.9500101
11
25.00117
21
6.2285257
0
LINE
8
bottom_labelLayer
10
24.7929669
20
6.1890726
11
24.7929669
21
5.9500101
0
LINE
8
bottom_labelLayer
10
24.7929669
20
5.9500101
11
24.7281232
21
5.9500101
0
LINE
8
bottom_labelLayer
10
24.7281232
20
5.9500101
11
24.7281232
21
6.2285257
0
LINE
8
bottom_labelLayer
10
24.5203107
20
6.1746195
11
24.5203107
21
5.9500101
0
LINE
8
bottom_labelLayer
10
24.5203107
20
5.9500101
11
24.4554669
21
5.9500101
0
LINE
8
bottom_labelLayer
10
24.4554669
20
5.9500101
11
24.4554669
21
6.3781351
0
LINE
8
bottom_labelLayer
10
24.4554669
20
6.3781351
11
24.5082013
21
6.3781351
0
LINE
8
bottom_labelLayer
10
24.5082013
20
6.3781351
11
24.5187482
21
6.3195414
0
LINE
8
bottom_labelLayer
10
24.5187482
20
6.3195414
11
24.5218732
21
6.3195414
0
LINE
8
bottom_labelLayer
10
24.7796857
20
6.3132914
11
24.7828107
21
6.3132914
0
LINE
8
bottom_labelLayer
10
25.0660138
20
6.229307
11
25.0660138
21
5.9500101
0
ARC
8
bottom_labelLayer
10
24.809883
20
6.2295445
40
0.1912897
50
359.6948437
51
8.1473588
0
ARC
8
bottom_labelLayer
10
24.8803453
20
6.2399739
40
0.1200611
50
7.9859536
51
20.795242
0
ARC
8
bottom_labelLayer
10
24.9192837
20
6.25489
40
0.0783638
50
20.7073918
51
40.0212969
0
ARC
8
bottom_labelLayer
10
24.9278311
20
6.260483
40
0.0682322
50
41.0403767
51
73.1793757
0
ARC
8
bottom_labelLayer
10
24.9154649
20
6.223075
40
0.1076227
50
72.6404831
51
86.2560783
0
ARC
8
bottom_labelLayer
10
24.9115037
20
6.1802992
40
0.1505705
50
85.8148509
51
90.0675276
0
ARC
8
bottom_labelLayer
10
24.9100502
20
6.1640294
40
0.166845
50
89.5617763
51
101.2963924
0
ARC
8
bottom_labelLayer
10
24.897485
20
6.2241813
40
0.1053984
50
101.0034155
51
121.7838585
0
ARC
8
bottom_labelLayer
10
24.8879334
20
6.2412359
40
0.0858747
50
122.3601472
51
140.2878515
0
ARC
8
bottom_labelLayer
10
24.9051183
20
6.2286367
40
0.1071521
50
140.9764833
51
161.1700397
0
ARC
8
bottom_labelLayer
10
24.9698859
20
6.2055889
40
0.1758947
50
160.8736565
51
172.526779
0
ARC
8
bottom_labelLayer
10
25.0780619
20
6.1906494
40
0.2850958
50
172.377472
51
180.1830784
0
ARC
8
bottom_labelLayer
10
25.3458962
20
6.1889071
40
0.5529293
50
179.9138565
51
179.9828458
0
ARC
8
bottom_labelLayer
10
24.5368362
20
6.2295445
40
0.1912897
50
359.6948437
51
8.1473588
0
ARC
8
bottom_labelLayer
10
24.6072985
20
6.2399739
40
0.1200611
50
7.9859536
51
20.795242
0
ARC
8
bottom_labelLayer
10
24.6462368
20
6.25489
40
0.0783638
50
20.7073918
51
40.0212969
0
ARC
8
bottom_labelLayer
10
24.6549616
20
6.2606048
40
0.0680184
50
41.0610995
51
72.8994877
0
ARC
8
bottom_labelLayer
10
24.6423643
20
6.2230996
40
0.1075745
50
72.3604224
51
85.9565216
0
ARC
8
bottom_labelLayer
10
24.6380966
20
6.1789591
40
0.1519106
50
85.5248257
51
90.0783821
0
ARC
8
bottom_labelLayer
10
24.6366453
20
6.1698127
40
0.1610616
50
89.5576526
51
101.4829227
0
ARC
8
bottom_labelLayer
10
24.6242823
20
6.2277381
40
0.1018362
50
101.1543594
51
123.0655845
0
ARC
8
bottom_labelLayer
10
24.6158793
20
6.2423749
40
0.0849903
50
123.7018097
51
142.3023089
0
ARC
8
bottom_labelLayer
10
24.6355623
20
6.2290216
40
0.1087398
50
143.077037
51
161.3916066
0
ARC
8
bottom_labelLayer
10
24.714906
20
6.2009986
40
0.1928816
50
161.0233829
51
171.4466388
0
ARC
8
bottom_labelLayer
10
24.8462221
20
6.1804283
40
0.3257976
50
171.3040381
51
178.3505439
0
ARC
8
bottom_labelLayer
10
24.9717531
20
6.174819
40
0.4514425
50
178.0975148
51
180.0253174
0
ARC
8
bottom_labelLayer
10
24.6317274
20
6.2549413
40
0.1274406
50
117.1209273
51
149.5422433
0
ARC
8
bottom_labelLayer
10
24.6447327
20
6.2318274
40
0.1539454
50
93.8340643
51
117.5074044
0
ARC
8
bottom_labelLayer
10
24.6483259
20
6.1999824
40
0.1859652
50
89.9661739
51
94.282579
0
ARC
8
bottom_labelLayer
10
24.6504783
20
6.1736609
40
0.2122965
50
77.5570672
51
90.5512829
0
ARC
8
bottom_labelLayer
10
24.6701781
20
6.2583892
40
0.1253177
50
52.7025587
51
78.0055663
0
ARC
8
bottom_labelLayer
10
24.677195
20
6.2714452
40
0.1107042
50
22.2098344
51
51.4968766
0
ARC
8
bottom_labelLayer
10
24.9002772
20
6.2459714
40
0.1353897
50
119.4040728
51
150.1830137
0
ARC
8
bottom_labelLayer
10
24.9150359
20
6.2235977
40
0.162138
50
118.2553663
51
120.0658644
0
ARC
8
bottom_labelLayer
10
24.9152501
20
6.2214674
40
0.1641179
50
95.8633361
51
117.9691785
0
ARC
8
bottom_labelLayer
10
24.9208051
20
6.1813215
40
0.2046264
50
89.9196814
51
96.2622616
0
ARC
8
bottom_labelLayer
10
24.9225883
20
6.1605559
40
0.2253966
50
79.9359468
51
90.3803915
0
ARC
8
bottom_labelLayer
10
24.9376065
20
6.2418894
40
0.1426915
50
62.9726317
51
80.1664919
0
ARC
8
bottom_labelLayer
10
24.9533074
20
6.2741038
40
0.1068623
50
44.2286621
51
62.6227461
0
ARC
8
bottom_labelLayer
10
24.948635
20
6.2720385
40
0.1116653
50
19.5614111
51
43.3157272
0
ARC
8
bottom_labelLayer
10
24.8808122
20
6.2465658
40
0.184107
50
7.5044069
51
19.964215
0
ARC
8
bottom_labelLayer
10
24.7686106
20
6.2308099
40
0.2974069
50
359.7104519
51
7.6907127
0
ENDSEC
0
EOF